<svg xmlns="http://www.w3.org/2000/svg" viewBox="0 0 793.22034 793.22034"><defs><style>.a{isolation:isolate;}.b{fill:#abddf3;mix-blend-mode:overlay;}.c{fill:#3d4752;}</style></defs><title>venn diagrams</title><g class="a"><circle class="b" cx="396.61017" cy="396.61017" r="396.61017"/><path class="c" d="M286.56915,350.24738a22.83372,22.83372,0,0,0-8.23437-6.86279,25.24238,25.24238,0,0,0-11.70312-2.67285,27.26181,27.26181,0,0,0-7.00781.939,19.30974,19.30974,0,0,0-6.42969,3.03418,16.73788,16.73788,0,0,0-4.69531,5.20117,14.54982,14.54982,0,0,0-1.80664,7.44043,13.59546,13.59546,0,0,0,1.66211,7.00732,15.06465,15.06465,0,0,0,4.47852,4.76807,28.52545,28.52545,0,0,0,6.64648,3.32275q3.82617,1.37476,8.16406,2.81738,5.2002,1.59155,10.54688,3.6123a37.892,37.892,0,0,1,9.67969,5.3457,26.35073,26.35073,0,0,1,7.07813,8.30713q2.74512,4.98486,2.74609,12.64209a30.21791,30.21791,0,0,1-2.96094,13.79785,28.28454,28.28454,0,0,1-7.875,9.68018,33.51041,33.51041,0,0,1-11.3418,5.70654,46.9507,46.9507,0,0,1-13.21875,1.87842,48.26206,48.26206,0,0,1-18.71094-3.75635,37.11017,37.11017,0,0,1-14.95312-11.125l11.125-9.39111a27.20366,27.20366,0,0,0,9.67969,8.66895,27.1857,27.1857,0,0,0,20.37109,2.31152,20.29757,20.29757,0,0,0,6.57422-3.17871,17.45667,17.45667,0,0,0,4.83984-5.418,15.51106,15.51106,0,0,0,1.87891-7.874,14.27626,14.27626,0,0,0-1.95117-7.72949,17.22722,17.22722,0,0,0-5.27344-5.27344,34.94371,34.94371,0,0,0-7.73047-3.68457q-4.40625-1.51685-9.31836-3.106a80.08623,80.08623,0,0,1-9.67969-3.54,33.47881,33.47881,0,0,1-8.52344-5.3457,24.65243,24.65243,0,0,1-6.06836-8.01855,27.02546,27.02546,0,0,1-2.3125-11.84717,26.2586,26.2586,0,0,1,3.10742-13.14746,28.28475,28.28475,0,0,1,8.08984-9.10205,33.71672,33.71672,0,0,1,11.26953-5.27393A49.33572,49.33572,0,0,1,267.35431,328.72a44.01986,44.01986,0,0,1,16.75781,3.17822,33.37168,33.37168,0,0,1,12.57031,8.52441Z"/><path class="c" d="M378.2254,398.7923v2.31152a19.09584,19.09584,0,0,1-.14453,2.31152H323.61212a20.20044,20.20044,0,0,0,1.94922,8.10693,21.342,21.342,0,0,0,4.8418,6.60059,22.42612,22.42612,0,0,0,7.00586,4.375,24.45767,24.45767,0,0,0,20.44531-1.45605,24.49856,24.49856,0,0,0,7.94531-7.36816l9.53516,7.65723a34.08632,34.08632,0,0,1-12.92969,10.7207,41.48047,41.48047,0,0,1-30.99219.83789,33.372,33.372,0,0,1-11.41211-7.29639,33.75289,33.75289,0,0,1-7.51367-11.3418,38.2403,38.2403,0,0,1-2.74609-14.73682,39.26152,39.26152,0,0,1,2.67773-14.66455,33.54193,33.54193,0,0,1,7.457-11.48584,34.17231,34.17231,0,0,1,11.29492-7.44092,38.77023,38.77023,0,0,1,27.72656-.2168,28.25619,28.25619,0,0,1,10.42383,7.07959,31.90207,31.90207,0,0,1,6.58789,11.19727A44.41108,44.41108,0,0,1,378.2254,398.7923Zm-13.87109-5.49023a25.9032,25.9032,0,0,0-1.37109-7.58545,17.44048,17.44048,0,0,0-3.61328-6.14014,16.96827,16.96827,0,0,0-5.92383-4.11768,20.9738,20.9738,0,0,0-8.30664-1.51709,21.95362,21.95362,0,0,0-8.16406,1.51709,21.16784,21.16784,0,0,0-6.64453,4.11768,21.71421,21.71421,0,0,0-4.625,6.14014,19.56246,19.56246,0,0,0-2.09375,7.58545Z"/><path class="c" d="M428.77814,376.25324H410.57306v35.57813q0,6.19336,2.3125,8.8584,2.30859,2.66528,7.36719,2.66406a22.42079,22.42079,0,0,0,4.04688-.39746A16.4267,16.4267,0,0,0,428.2,421.76447l.43359,11.125a33.23394,33.23394,0,0,1-5.418,1.37256,36.578,36.578,0,0,1-6.14062.50537q-9.67969,0-14.80859-5.3457-5.12988-5.34375-5.12891-16.03711V376.25324H383.98908V365.12872h13.14844V345.47931h13.43555v19.64941h18.20508Z"/><path class="c" d="M483.82306,433.61163H467.93048l44.35547-102.291h13.002l43.92188,102.291H553.02814l-10.40234-25.13916H494.08087Zm15.31445-37.709h38.28711l-19.07031-47.96729Z"/></g></svg>