<svg xmlns="http://www.w3.org/2000/svg" viewBox="0 0 631.85986 534.79102"><defs><style>.a{fill:none;stroke:#3d4752;stroke-miterlimit:10;stroke-width:5px;}.b{fill:#3d4752;}.c{fill:#cdbbdc;}</style></defs><title>venn diagrams</title><path class="a" d="M2.5,407.02045a24.84578,24.84578,0,0,0,24.84578,24.84578H291.08439A24.84578,24.84578,0,0,1,315.93018,456.712v0A24.84578,24.84578,0,0,1,340.776,431.86623H604.51408a24.84578,24.84578,0,0,0,24.84578-24.84578"/><path class="b" d="M237.60547,534.07324h-7.34668l20.50488-47.28906h6.01074l20.30566,47.28906h-7.48145L264.79,522.45215H242.34766Zm7.08008-17.43262h17.7002l-8.81641-22.1748Z"/><path class="b" d="M330.7041,486.78418h6.71875v19.53516q0,8.28369-.22852,10.56641a22.93706,22.93706,0,0,1-1.5498,6.78418,17.85706,17.85706,0,0,1-3.65234,5.2998A19.58748,19.58748,0,0,1,318.083,534.791a18.86816,18.86816,0,0,1-7.51758-1.53223,20.238,20.238,0,0,1-6.24512-4.1582,16.35955,16.35955,0,0,1-3.84863-5.56152,26.37628,26.37628,0,0,1-1.56543-7.40332q-.13037-1.793-.13086-9.81641V486.78418h6.68555v19.76367q0,6.88037.16406,8.77344a21.49305,21.49305,0,0,0,1.14063,5.6416,10.323,10.323,0,0,0,2.20117,3.3584,12.17906,12.17906,0,0,0,4.06055,2.78906,12.24449,12.24449,0,0,0,10.29-.082,11.94261,11.94261,0,0,0,4.207-3.04883,10.74547,10.74547,0,0,0,2.251-4.1582,26.30475,26.30475,0,0,0,.83105-5.34863q.09814-1.6626.09766-7.9248Z"/><path class="b" d="M364.79,486.78418h16.29688a24.30017,24.30017,0,0,1,5.34375.60156,14.08108,14.08108,0,0,1,4.77539,2.00391,10.7881,10.7881,0,0,1,3.40625,3.67383,11.26305,11.26305,0,0,1,1.30273,5.67676,9.86021,9.86021,0,0,1-2.27051,6.6123,11.59831,11.59831,0,0,1-6.01074,3.67383v.13379a13.699,13.699,0,0,1,4.207,1.16895,10.99225,10.99225,0,0,1,3.33984,2.37109,10.32155,10.32155,0,0,1,2.1709,3.47266,12.449,12.449,0,0,1,.76855,4.47559,11.708,11.708,0,0,1-5.21094,10.11914,17.84453,17.84453,0,0,1-5.64355,2.47168,27.61617,27.61617,0,0,1-6.91309.834H364.79Zm6.6123,19.9707h8.61621a14.40387,14.40387,0,0,0,3.57422-.43359,8.84461,8.84461,0,0,0,2.97168-1.33594,6.57044,6.57044,0,0,0,2.00391-2.27148,6.90768,6.90768,0,0,0,.73535-3.30566,5.798,5.798,0,0,0-2.80664-5.44336,14.94315,14.94315,0,0,0-7.54687-1.63672h-7.54785Zm0,21.709h8.28223a24.22636,24.22636,0,0,0,4.1748-.36816,12.20306,12.20306,0,0,0,3.80762-1.30176,7.61857,7.61857,0,0,0,2.73828-2.50586,7.0798,7.0798,0,0,0,1.03516-3.97363q0-4.2085-2.87207-6.07812-2.87256-1.86914-8.28223-1.87012h-8.88379Z"/><path class="c" d="M315.93018,338.25A190.32636,190.32636,0,0,1,193.71,382.41992c-105.6001,0-191.21-85.61-191.21-191.21S88.10986,0,193.71,0A190.32636,190.32636,0,0,1,315.93018,44.16992a191.18956,191.18956,0,0,0,0,294.08008Z"/><path class="c" d="M629.35986,191.21c0,105.6-85.60986,191.21-191.21,191.21A190.324,190.324,0,0,1,315.93018,338.25a191.19043,191.19043,0,0,0,0-294.08008A190.324,190.324,0,0,1,438.1499,0C543.75,0,629.35986,85.60986,629.35986,191.21Z"/><path class="b" d="M127.08813,213.80273h-8.05859l31.21289-72.21582h7.13965l31.00781,72.21582h-8.16016l-7.95605-18.97217h-37.332Zm10.60742-25.7041h31.82422l-15.91211-38.35205Z"/><path class="b" d="M455.302,141.58691h21.52246a40.72813,40.72813,0,0,1,8.26172.8667,22.51377,22.51377,0,0,1,7.49707,2.958,16.32786,16.32786,0,0,1,5.40625,5.66113,17.55325,17.55325,0,0,1,2.09082,8.97607,15.16466,15.16466,0,0,1-3.4873,9.94482,16.36389,16.36389,0,0,1-9.33008,5.55908v.2041a19.042,19.042,0,0,1,11.65332,5.457q4.63184,4.64209,4.63184,12.59668a17.70952,17.70952,0,0,1-7.22754,14.53516,25.684,25.684,0,0,1-8.44824,4.02881,40.61607,40.61607,0,0,1-11.19531,1.42822H455.302Zm7.34375,31.61963h14.79a24.19008,24.19008,0,0,0,5.35547-.61182,14.89741,14.89741,0,0,0,4.94727-2.09082,11.19438,11.19438,0,0,0,3.62012-3.92725,12.104,12.104,0,0,0,1.37793-6.01807,11.59815,11.59815,0,0,0-1.37793-5.86475,11.439,11.439,0,0,0-3.72266-3.92725,16.019,16.019,0,0,0-5.50781-2.19287,32.81059,32.81059,0,0,0-6.73242-.66309h-12.75Zm0,34.272h13.668a36.71212,36.71212,0,0,0,7.59961-.76465,19.50276,19.50276,0,0,0,6.32422-2.44824,13.06,13.06,0,0,0,4.335-4.38574,12.30668,12.30668,0,0,0,1.63184-6.47705q0-7.13892-4.8457-10.65918-4.8457-3.51855-13.71875-3.519H462.64575Z"/><path class="c" d="M315.92993,334.9834a188.6875,188.6875,0,0,1,0-287.54687,188.6875,188.6875,0,0,1,0,287.54687Z"/><path class="b" d="M315.93018,50.73434a186.18676,186.18676,0,0,1,0,280.95124,186.18583,186.18583,0,0,1,0-280.95124m0-6.56442a191.18957,191.18957,0,0,0,0,294.08009,191.19044,191.19044,0,0,0,0-294.08009Z"/></svg>