<svg xmlns="http://www.w3.org/2000/svg" viewBox="0 0 636.85986 539.07617"><defs><style>.a{fill:#f7bcae;}.b{fill:#3d4752;}.c{fill:none;stroke:#3d4752;stroke-miterlimit:10;stroke-width:5px;}</style></defs><title>venn diagrams</title><path class="a" d="M387.4153,196.21289a190.76672,190.76672,0,0,1-68.98975,147.04,191.18956,191.18956,0,0,1,0-294.08008A190.76672,190.76672,0,0,1,387.4153,196.21289Z"/><path class="b" d="M440.6499,5c105.6001,0,191.21,85.60986,191.21,191.21s-85.60986,191.21-191.21,191.21A190.32471,190.32471,0,0,1,318.43018,343.25,190.327,190.327,0,0,1,196.21,387.41992C90.60986,387.41992,5,301.81006,5,196.21S90.60986,5,196.21,5A190.32569,190.32569,0,0,1,318.43018,49.16992,190.32337,190.32337,0,0,1,440.6499,5m0-5A195.29955,195.29955,0,0,0,318.43018,42.719,196.21551,196.21551,0,1,0,119.83545,376.99854a195.93789,195.93789,0,0,0,198.59473-27.29761A196.21536,196.21536,0,1,0,517.02441,15.42139,194.98165,194.98165,0,0,0,440.6499,0Z"/><path class="c" d="M249.43532,412.02338a24.84578,24.84578,0,0,0,24.84578,24.84578h19.29867a24.84578,24.84578,0,0,1,24.84578,24.84578v0a24.84578,24.84578,0,0,1,24.84578-24.84578h19.24925a24.84578,24.84578,0,0,0,24.84578-24.84578"/><path class="b" d="M240.10084,539.07617h-7.34668L253.259,491.78711h6.01074l20.30566,47.28906H272.094l-4.80859-11.62109H244.843Zm7.08008-17.43262h17.7002l-8.81641-22.1748Z"/><path class="b" d="M307.98952,539.07617h-6.71875V519.541q0-8.28369.22852-10.56641a22.93706,22.93706,0,0,1,1.5498-6.78418,17.85706,17.85706,0,0,1,3.65234-5.2998,19.58748,19.58748,0,0,1,13.90918-5.82129,18.86816,18.86816,0,0,1,7.51758,1.53223,20.238,20.238,0,0,1,6.24512,4.1582,16.35955,16.35955,0,0,1,3.84863,5.56152,26.37628,26.37628,0,0,1,1.56543,7.40332q.13037,1.793.13086,9.81641v19.53516h-6.68555V519.3125q0-6.88037-.16406-8.77344a21.49306,21.49306,0,0,0-1.14062-5.6416,10.323,10.323,0,0,0-2.20117-3.3584,12.17906,12.17906,0,0,0-4.06055-2.78906,12.24449,12.24449,0,0,0-10.29.082,11.94261,11.94261,0,0,0-4.207,3.04883,10.74547,10.74547,0,0,0-2.251,4.1582,26.30475,26.30475,0,0,0-.83105,5.34863q-.09814,1.6626-.09766,7.9248Z"/><path class="b" d="M367.28541,491.78711h16.29688a24.30017,24.30017,0,0,1,5.34375.60156,14.08108,14.08108,0,0,1,4.77539,2.00391,10.7881,10.7881,0,0,1,3.40625,3.67383,11.26305,11.26305,0,0,1,1.30273,5.67676,9.86021,9.86021,0,0,1-2.27051,6.6123,11.59831,11.59831,0,0,1-6.01074,3.67383v.13379a13.699,13.699,0,0,1,4.207,1.16895,10.99225,10.99225,0,0,1,3.33984,2.37109,10.32155,10.32155,0,0,1,2.1709,3.47266,12.449,12.449,0,0,1,.76855,4.47559,11.708,11.708,0,0,1-5.21094,10.11914,17.84453,17.84453,0,0,1-5.64355,2.47168,27.61617,27.61617,0,0,1-6.91309.834h-15.5625Zm6.6123,19.9707h8.61621a14.40387,14.40387,0,0,0,3.57422-.43359,8.84461,8.84461,0,0,0,2.97168-1.33594,6.57044,6.57044,0,0,0,2.00391-2.27148,6.90768,6.90768,0,0,0,.73535-3.30566,5.798,5.798,0,0,0-2.80664-5.44336,14.94315,14.94315,0,0,0-7.54687-1.63672h-7.54785Zm0,21.709h8.28223a24.22636,24.22636,0,0,0,4.1748-.36816,12.20306,12.20306,0,0,0,3.80762-1.30176,7.61857,7.61857,0,0,0,2.73828-2.50586,7.0798,7.0798,0,0,0,1.03516-3.97363q0-4.2085-2.87207-6.07812-2.87256-1.86914-8.28223-1.87012h-8.88379Z"/><path class="b" d="M129.58351,218.80623h-8.05859l31.21289-72.21582h7.13965l31.00781,72.21582h-8.16016l-7.95605-18.97266H137.437Zm10.60742-25.7041h31.82422L156.103,154.74959Z"/><path class="b" d="M457.79738,146.59041h21.52246a40.76188,40.76188,0,0,1,8.26172.86621,22.53451,22.53451,0,0,1,7.49707,2.958,16.33209,16.33209,0,0,1,5.40625,5.66113,17.55514,17.55514,0,0,1,2.09082,8.97656,15.16337,15.16337,0,0,1-3.4873,9.94434,16.36193,16.36193,0,0,1-9.33008,5.55957v.2041a19.042,19.042,0,0,1,11.65332,5.457q4.63184,4.64209,4.63184,12.59668a17.71128,17.71128,0,0,1-7.22754,14.53516,25.69319,25.69319,0,0,1-8.44824,4.02832,40.61539,40.61539,0,0,1-11.19531,1.42871h-21.375Zm7.34375,31.61914h14.79a24.18915,24.18915,0,0,0,5.35547-.61133,14.89741,14.89741,0,0,0,4.94727-2.09082,11.19593,11.19593,0,0,0,3.62012-3.92773,12.1033,12.1033,0,0,0,1.37793-6.01758,11.59878,11.59878,0,0,0-1.37793-5.86523,11.43755,11.43755,0,0,0-3.72266-3.92676,16.01955,16.01955,0,0,0-5.50781-2.19336,32.8106,32.8106,0,0,0-6.73242-.66309h-12.75Zm0,34.27246h13.668a36.71211,36.71211,0,0,0,7.59961-.76465,19.5138,19.5138,0,0,0,6.32422-2.44824,13.06446,13.06446,0,0,0,4.335-4.38574,12.30968,12.30968,0,0,0,1.63184-6.47754q0-7.13818-4.8457-10.65918-4.8457-3.51855-13.71875-3.51855H465.14113Z"/></svg>