<svg xmlns="http://www.w3.org/2000/svg" viewBox="0 0 626.85986 382.41992"><defs><style>.a{isolation:isolate;}.b{fill:#fcd1a5;mix-blend-mode:overlay;}.c{fill:#3d4752;}</style></defs><title>venn diagrams</title><g class="a"><path class="b" d="M313.42993,338.25a190.32471,190.32471,0,0,1-122.22,44.16992c-105.6001,0-191.21-85.61-191.21-191.21S85.60986,0,191.21,0a190.32471,190.32471,0,0,1,122.22,44.16992,191.19,191.19,0,0,0,0,294.08008Z"/><path class="b" d="M626.85986,191.21c0,105.6-85.60986,191.21-191.21,191.21a190.32471,190.32471,0,0,1-122.22-44.16992,191.19,191.19,0,0,0,0-294.08008A190.32471,190.32471,0,0,1,435.6499,0C541.25,0,626.85986,85.60986,626.85986,191.21Z"/><path class="c" d="M111.64624,227.82031h-8.05859l31.21289-72.21582h7.13965L172.948,227.82031h-8.16016l-7.95605-18.97168h-37.332Zm10.60742-25.7041h31.82422l-15.91211-38.35156Z"/><path class="c" d="M461.2229,155.60449h21.52246a40.69444,40.69444,0,0,1,8.26172.86719,22.49305,22.49305,0,0,1,7.49707,2.958,16.32364,16.32364,0,0,1,5.40625,5.66113,17.55135,17.55135,0,0,1,2.09082,8.97559,15.166,15.166,0,0,1-3.4873,9.94531,16.36585,16.36585,0,0,1-9.33008,5.55859v.2041a19.042,19.042,0,0,1,11.65332,5.457q4.63184,4.64209,4.63184,12.59668a17.70777,17.70777,0,0,1-7.22754,14.53516,25.67492,25.67492,0,0,1-8.44824,4.0293,40.61674,40.61674,0,0,1-11.19531,1.42773h-21.375Zm7.34375,31.62012h14.79a24.191,24.191,0,0,0,5.35547-.6123,14.89741,14.89741,0,0,0,4.94727-2.09082,11.19283,11.19283,0,0,0,3.62012-3.92676,12.10461,12.10461,0,0,0,1.37793-6.01855,11.59751,11.59751,0,0,0-1.37793-5.86426,11.44047,11.44047,0,0,0-3.72266-3.92773,16.01855,16.01855,0,0,0-5.50781-2.19238,32.81059,32.81059,0,0,0-6.73242-.66309h-12.75Zm0,34.27148h13.668a36.71212,36.71212,0,0,0,7.59961-.76465,19.49174,19.49174,0,0,0,6.32422-2.44824,13.05561,13.05561,0,0,0,4.335-4.38574,12.30369,12.30369,0,0,0,1.63184-6.47656q0-7.13965-4.8457-10.65918-4.8457-3.51855-13.71875-3.51953H468.56665Z"/></g></svg>