<svg xmlns="http://www.w3.org/2000/svg" viewBox="0 0 822.85986 708.21875"><defs><style>.a{isolation:isolate;}.b,.e{fill:#d2e5b3;}.c{fill:#fff;}.d{fill:none;stroke:#3d4752;stroke-miterlimit:10;stroke-width:9px;}.e{mix-blend-mode:overlay;}.f{fill:#3d4752;}</style></defs><title>venn diagrams</title><g class="a"><rect class="b" x="137.21997" y="-137.21997" width="548.41992" height="822.85986" transform="translate(685.63989 -137.21997) rotate(90)"/><circle class="c" cx="274.20905" cy="274.20996" r="191.21098"/><circle class="d" cx="548.65081" cy="274.20996" r="191.21098"/><rect class="e" x="615.41992" y="605.73351" width="94.65873" height="94.65873"/><path class="f" d="M759.44556,679.16406h-7.34668L772.60376,631.875h6.01172l20.30469,47.28906H791.4397L786.6311,667.542H764.18774Zm7.08008-17.43359h17.70117l-8.81738-22.1748Z"/><path class="f" d="M818.64478,638.58691a5.07936,5.07936,0,0,0-2.0127-1.60449,6.22108,6.22108,0,0,0-2.73047-.64648,5.75064,5.75064,0,0,0-2.77832.64648,6.03132,6.03132,0,0,0-1.98828,1.7002,7.32673,7.32673,0,0,0-1.17383,2.37207,9.45831,9.45831,0,0,0-.38281,2.6582,8.9551,8.9551,0,0,0,.40625,2.65918,7.40078,7.40078,0,0,0,1.22266,2.37109,6.19407,6.19407,0,0,0,2.03516,1.70117,6.01176,6.01176,0,0,0,2.85059.64648,7.2688,7.2688,0,0,0,2.68262-.52734,5.10362,5.10362,0,0,0,2.15625-1.5332l3.59277,3.6416a9.51385,9.51385,0,0,1-3.665,2.37109,13.56264,13.56264,0,0,1-4.81445.83887,14.19755,14.19755,0,0,1-4.81445-.81445,11.23178,11.23178,0,0,1-6.65918-6.22852,12.69683,12.69683,0,0,1-.98145-5.126,12.45111,12.45111,0,0,1,.98145-5.03027,11.50278,11.50278,0,0,1,2.65918-3.832,11.87848,11.87848,0,0,1,3.9043-2.44336,13.32629,13.32629,0,0,1,9.67773.0957,9.293,9.293,0,0,1,3.75977,2.63477Z"/><path class="f" d="M227.66919,314.21973H216.60962l42.83984-99.12012h9.7998l42.55957,99.12012H300.60962l-10.91992-26.04H238.44946Zm14.55957-35.28027h43.68066L264.06958,226.2998Z"/><path class="f" d="M527.29224,215.09961h29.54a55.93865,55.93865,0,0,1,11.33984,1.18945,30.90644,30.90644,0,0,1,10.29,4.06055,22.40686,22.40686,0,0,1,7.41992,7.76953,24.08724,24.08724,0,0,1,2.87012,12.32031,20.812,20.812,0,0,1-4.78613,13.65039,22.46776,22.46776,0,0,1-12.80566,7.62988v.2793a26.14634,26.14634,0,0,1,15.99512,7.49023q6.356,6.37207,6.35645,17.29a24.31047,24.31047,0,0,1-9.91992,19.9502,35.27864,35.27864,0,0,1-11.59668,5.53027,55.75166,55.75166,0,0,1-15.36426,1.96H527.29224ZM537.37231,258.499h20.2998a33.17453,33.17453,0,0,0,7.34961-.83984,20.39884,20.39884,0,0,0,6.79-2.87012,15.35448,15.35448,0,0,0,4.9707-5.38965,16.63208,16.63208,0,0,0,1.88965-8.25977,15.93343,15.93343,0,0,0-1.88965-8.0498,15.71682,15.71682,0,0,0-5.11035-5.39062,22.01473,22.01473,0,0,0-7.55957-3.00977,45.06821,45.06821,0,0,0-9.24023-.91016h-17.5Zm0,47.04h18.75977a50.33927,50.33927,0,0,0,10.42969-1.0498,26.76619,26.76619,0,0,0,8.68066-3.35937,17.90428,17.90428,0,0,0,5.94922-6.02051,16.88545,16.88545,0,0,0,2.24023-8.88965q0-9.79834-6.64941-14.62988-6.65186-4.83105-18.83008-4.83008H537.37231Z"/></g></svg>