<svg xmlns="http://www.w3.org/2000/svg" viewBox="0 0 626.85986 545.21854"><defs><style>.a{isolation:isolate;}.b{fill:#cdbbdc;}.b,.d,.e{mix-blend-mode:overlay;}.c,.e{fill:#3d4752;}.d{fill:#d6d6d6;}</style></defs><title>venn diagrams</title><g class="a"><rect class="b" x="35.37124" y="442.73329" width="94.65873" height="94.65873"/><path class="c" d="M174.59888,468.87479h16.29785a24.29659,24.29659,0,0,1,5.34277.60059,14.12219,14.12219,0,0,1,4.77637,2.00391,10.81679,10.81679,0,0,1,3.40625,3.67383,11.27321,11.27321,0,0,1,1.30273,5.67676,9.86026,9.86026,0,0,1-2.27148,6.61328,11.588,11.588,0,0,1-6.01172,3.67285v.13379a13.746,13.746,0,0,1,4.209,1.16895,10.97589,10.97589,0,0,1,3.33887,2.37109,10.34118,10.34118,0,0,1,2.1709,3.47363,12.42634,12.42634,0,0,1,.76758,4.47461,11.70648,11.70648,0,0,1-5.209,10.11914,17.85014,17.85014,0,0,1-5.64453,2.47168,27.62128,27.62128,0,0,1-6.91309.835h-15.5625Zm6.6123,19.9707h8.61719a14.37684,14.37684,0,0,0,3.57227-.43457,8.8323,8.8323,0,0,0,2.97266-1.33594,6.54753,6.54753,0,0,0,2.00391-2.27051,6.91173,6.91173,0,0,0,.73438-3.30664,5.80127,5.80127,0,0,0-2.80469-5.44336,14.95209,14.95209,0,0,0-7.54785-1.63672h-7.54785Zm0,21.708h8.2832a24.21524,24.21524,0,0,0,4.17383-.36816,12.17233,12.17233,0,0,0,3.80664-1.30176,7.59515,7.59515,0,0,0,2.73926-2.50488,7.08318,7.08318,0,0,0,1.03516-3.97461q0-4.207-2.87207-6.07812-2.87256-1.86914-8.28223-1.87012h-8.88379Z"/><path class="c" d="M239.81665,516.16385H233.0979V496.62772q0-8.28369.22852-10.56641a22.939,22.939,0,0,1,1.54883-6.78418,17.87177,17.87177,0,0,1,3.65234-5.29883,19.18079,19.18079,0,0,1,6.14844-4.208,19.33325,19.33325,0,0,1,15.2793-.08105,20.20353,20.20353,0,0,1,6.24512,4.1582,16.37444,16.37444,0,0,1,3.84863,5.56055,26.384,26.384,0,0,1,1.56543,7.40332q.13037,1.79443.12988,9.81641v19.53613h-6.68555V496.40018q0-6.88184-.16309-8.77344a21.48949,21.48949,0,0,0-1.1416-5.64258,10.29118,10.29118,0,0,0-2.20117-3.3584,12.17906,12.17906,0,0,0-4.06055-2.78906,12.24226,12.24226,0,0,0-10.28906.082,11.94261,11.94261,0,0,0-4.207,3.04883,10.75238,10.75238,0,0,0-2.251,4.1582,26.32685,26.32685,0,0,0-.83105,5.34863q-.09961,1.66406-.09766,7.92578Z"/><path class="c" d="M301.04907,516.16385h-7.34766l20.50586-47.28906H320.218l20.30566,47.28906h-7.48145l-4.80957-11.62207H305.79126Zm7.08008-17.43359h17.69922l-8.81641-22.1748Z"/><path class="c" d="M360.24634,475.5867a5.062,5.062,0,0,0-2.01172-1.60449,6.22108,6.22108,0,0,0-2.73047-.64648,5.75725,5.75725,0,0,0-2.7793.64648,6.02783,6.02783,0,0,0-1.9873,1.7002,7.32673,7.32673,0,0,0-1.17383,2.37207,9.45956,9.45956,0,0,0-.38379,2.6582,8.95763,8.95763,0,0,0,.4082,2.65918,7.39632,7.39632,0,0,0,1.2207,2.37109,6.21119,6.21119,0,0,0,2.03711,1.70117,6.00775,6.00775,0,0,0,2.84961.64648,7.26994,7.26994,0,0,0,2.68359-.52734,5.11863,5.11863,0,0,0,2.15527-1.5332l3.59277,3.6416a9.51737,9.51737,0,0,1-3.66406,2.37109,13.57578,13.57578,0,0,1-4.81543.83887,14.20165,14.20165,0,0,1-4.81445-.81445,11.23885,11.23885,0,0,1-6.65918-6.22852,12.71334,12.71334,0,0,1-.98242-5.126,12.46778,12.46778,0,0,1,.98242-5.03027,11.517,11.517,0,0,1,2.65918-3.832,11.87848,11.87848,0,0,1,3.9043-2.44336,13.32367,13.32367,0,0,1,9.67676.0957,9.29651,9.29651,0,0,1,3.76074,2.63477Z"/><path class="c" d="M420.969,487.70975v5.41016H385.83618v-5.41016Zm0,11.02051v5.41113H385.83618v-5.41113Z"/><path class="c" d="M448.08521,468.87479h16.29785a24.29659,24.29659,0,0,1,5.34277.60059,14.1222,14.1222,0,0,1,4.77637,2.00391,10.8168,10.8168,0,0,1,3.40625,3.67383,11.27321,11.27321,0,0,1,1.30273,5.67676,9.86026,9.86026,0,0,1-2.27148,6.61328A11.588,11.588,0,0,1,470.928,491.116v.13379a13.746,13.746,0,0,1,4.209,1.16895,10.97589,10.97589,0,0,1,3.33887,2.37109,10.34118,10.34118,0,0,1,2.1709,3.47363,12.42634,12.42634,0,0,1,.76758,4.47461,11.70648,11.70648,0,0,1-5.209,10.11914,17.85014,17.85014,0,0,1-5.64453,2.47168,27.62127,27.62127,0,0,1-6.91309.835h-15.5625Zm6.6123,19.9707h8.61719a14.37684,14.37684,0,0,0,3.57227-.43457,8.8323,8.8323,0,0,0,2.97266-1.33594,6.54753,6.54753,0,0,0,2.00391-2.27051,6.91173,6.91173,0,0,0,.73438-3.30664,5.80127,5.80127,0,0,0-2.80469-5.44336,14.95209,14.95209,0,0,0-7.54785-1.63672h-7.54785Zm0,21.708h8.2832a24.21524,24.21524,0,0,0,4.17383-.36816,12.17233,12.17233,0,0,0,3.80664-1.30176,7.59515,7.59515,0,0,0,2.73926-2.50488,7.08318,7.08318,0,0,0,1.03516-3.97461q0-4.207-2.87207-6.07812-2.87256-1.86914-8.28223-1.87012h-8.88379Z"/><path class="c" d="M502.18774,468.33963l4.67578-1.73633,20.57129,50.16113-4.74219,1.60352Z"/><path class="c" d="M551.67993,516.16385h-7.34766l20.50586-47.28906h6.01172l20.30469,47.28906h-7.48047l-4.80957-11.62207H556.42212ZM558.76,498.73026h17.7002l-8.81738-22.1748Z"/><path class="d" d="M313.42993,338.25a190.32492,190.32492,0,0,1-122.22,44.17C85.60986,382.42,0,296.81,0,191.21S85.60986,0,191.21,0a190.32525,190.32525,0,0,1,122.22,44.17,191.18993,191.18993,0,0,0,0,294.08Z"/><path class="e" d="M382.41992,191.21a190.76592,190.76592,0,0,1-68.99,147.04,191.18993,191.18993,0,0,1,0-294.08A190.76605,190.76605,0,0,1,382.41992,191.21Z"/><path class="b" d="M626.85986,191.21c0,105.6-85.61,191.21-191.21,191.21a190.32442,190.32442,0,0,1-122.22-44.17,191.18993,191.18993,0,0,0,0-294.08A190.32476,190.32476,0,0,1,435.6499,0C541.24988,0,626.85986,85.61,626.85986,191.21Z"/><path class="c" d="M120.72876,229.21951H109.66919L152.509,130.0994h9.7998l42.55957,99.12012H193.66919l-10.91992-26.04H131.509Zm14.55957-35.2793H178.969l-21.83984-52.64062Z"/><path class="c" d="M442.71216,130.0994h29.54a55.87122,55.87122,0,0,1,11.33984,1.19043,30.90505,30.90505,0,0,1,10.29,4.05957,22.40992,22.40992,0,0,1,7.41992,7.77051,24.08476,24.08476,0,0,1,2.87012,12.32031,20.81124,20.81124,0,0,1-4.78613,13.64941,22.46776,22.46776,0,0,1-12.80566,7.62988v.28027A26.141,26.141,0,0,1,502.57544,184.49q6.356,6.37207,6.35645,17.29a24.31041,24.31041,0,0,1-9.91992,19.94922,35.23988,35.23988,0,0,1-11.59668,5.53027,55.71453,55.71453,0,0,1-15.36426,1.96H442.71216Zm10.08008,43.40039H473.092a33.23265,33.23265,0,0,0,7.34961-.83984,20.43921,20.43921,0,0,0,6.79-2.87012,15.36285,15.36285,0,0,0,4.9707-5.38965,16.6334,16.6334,0,0,0,1.88965-8.26074,15.936,15.936,0,0,0-1.88965-8.0498A15.7139,15.7139,0,0,0,487.092,142.7a21.976,21.976,0,0,0-7.55957-3.00977,45.00015,45.00015,0,0,0-9.24023-.91016h-17.5Zm0,47.04H471.552a50.33927,50.33927,0,0,0,10.42969-1.0498,26.76709,26.76709,0,0,0,8.68066-3.36035,17.91023,17.91023,0,0,0,5.94922-6.01953,16.89144,16.89144,0,0,0,2.24023-8.89062q0-9.79687-6.64941-14.62988-6.65186-4.82959-18.83008-4.83008H452.79224Z"/></g></svg>