<svg xmlns="http://www.w3.org/2000/svg" viewBox="0 0 580.30078 443.99997"><defs><style>.a{isolation:isolate;}.b{fill:#f7bcae;mix-blend-mode:overlay;}.c{fill:none;}.d{fill:#3d4752;}</style></defs><title>venn diagrams</title><g class="a"><path class="b" d="M540.00048,222c0,122.58-100.74,222-225,222s-225-99.42-225-222,100.74-222,225-222S540.00048,99.42,540.00048,222Z"/><path class="b" d="M225.06048,270.9c0,61.32-50.4,111-112.5,111-62.16,0-112.56-49.68-112.56-111s50.4-111.06,112.56-111.06C174.66049,159.84,225.06048,209.58,225.06048,270.9Z"/><path class="b" d="M225.06048,182.1c0,61.32-50.4,111-112.5,111-62.16,0-112.56-49.68-112.56-111s50.4-111.06,112.56-111.06C174.66049,71.04,225.06048,120.78,225.06048,182.1Z"/><path class="c" d="M225.06048,270.9c0,61.32-50.4,111-112.5,111-62.16,0-112.56-49.68-112.56-111s50.4-111.06,112.56-111.06C174.66049,159.84,225.06048,209.58,225.06048,270.9Z"/><path class="d" d="M34.09131,212.56737a7.08248,7.08248,0,0,0,.36914,2.2627,7.342,7.342,0,0,0,.99219,1.96777l-.71777.46387a8.00515,8.00515,0,0,1-1.11816-2.15234,7.86928,7.86928,0,0,1,0-5.084,8.00515,8.00515,0,0,1,1.11816-2.15234l.71777.46484a7.3214,7.3214,0,0,0-.99219,1.9668A7.08248,7.08248,0,0,0,34.09131,212.56737Z"/><path class="d" d="M37.269,215.60545H36.10889l3.23828-7.46777h.94922l3.207,7.46777H42.32178l-.75977-1.83594H38.01807Zm1.11816-2.75293h2.79492l-1.3916-3.502Z"/><path class="d" d="M47.99072,215.60545H46.9292v-3.085q0-1.30811.03613-1.66895a3.61446,3.61446,0,0,1,.24512-1.07129,2.795,2.795,0,0,1,.57617-.83691,3.04238,3.04238,0,0,1,.9707-.665,3.05339,3.05339,0,0,1,2.41309-.0127,3.19969,3.19969,0,0,1,.98633.65723,2.58572,2.58572,0,0,1,.6084.87793,4.17055,4.17055,0,0,1,.24707,1.16895q.02051.28418.02051,1.55078v3.085H51.97705v-3.12109q0-1.08691-.02637-1.38574a3.37011,3.37011,0,0,0-.17969-.89062,1.63555,1.63555,0,0,0-.34766-.53125,1.94679,1.94679,0,0,0-.6416-.44043,1.937,1.937,0,0,0-1.625.01367,1.88471,1.88471,0,0,0-.66406.48145,1.69892,1.69892,0,0,0-.35547.65625,4.19418,4.19418,0,0,0-.13184.84473q-.01465.26221-.01465,1.252Z"/><path class="d" d="M63.75732,214.4453a3.35881,3.35881,0,0,1-1.14941.97559,3.59207,3.59207,0,0,1-1.69824.374,4.196,4.196,0,0,1-1.57715-.29,3.66025,3.66025,0,0,1-1.24414-.8125,3.733,3.733,0,0,1-.81836-1.24414,4.16763,4.16763,0,0,1-.29492-1.58789,4.12462,4.12462,0,0,1,.30078-1.59766,3.61205,3.61205,0,0,1,.833-1.23437,3.79122,3.79122,0,0,1,1.26074-.7959,4.29353,4.29353,0,0,1,1.582-.28516,4.09919,4.09919,0,0,1,.77051.07422,3.77748,3.77748,0,0,1,.748.22168,3.09592,3.09592,0,0,1,.6543.36328,2.39481,2.39481,0,0,1,.50684.501l-.82324.63281a2.05324,2.05324,0,0,0-.77539-.627,2.40726,2.40726,0,0,0-1.08105-.248,2.81,2.81,0,0,0-1.17578.2373,2.65444,2.65444,0,0,0-.8916.64844,2.93915,2.93915,0,0,0-.56934.95508,3.30513,3.30513,0,0,0-.2002,1.1543,3.50431,3.50431,0,0,0,.19434,1.18164,2.84732,2.84732,0,0,0,.55957.95508,2.57523,2.57523,0,0,0,.88574.6377,2.83163,2.83163,0,0,0,1.166.23242,2.57576,2.57576,0,0,0,1.14941-.25391,2.204,2.204,0,0,0,.85449-.73828Z"/><path class="d" d="M67.06006,208.67577a.74848.74848,0,0,0-.29395-.23437.9159.9159,0,0,0-.39844-.09375.84578.84578,0,0,0-.40625.09375.88812.88812,0,0,0-.291.249,1.075,1.075,0,0,0-.1709.34668,1.35481,1.35481,0,0,0-.05664.3877,1.32689,1.32689,0,0,0,.05957.38867,1.09211,1.09211,0,0,0,.17871.34668.91316.91316,0,0,0,.29785.249.883.883,0,0,0,.416.09375,1.05977,1.05977,0,0,0,.39258-.07715.746.746,0,0,0,.31445-.22363l.52539.53223a1.39678,1.39678,0,0,1-.53613.34668,1.99205,1.99205,0,0,1-.70312.12207,2.07667,2.07667,0,0,1-.70312-.11914,1.641,1.641,0,0,1-.97363-.91016,1.85314,1.85314,0,0,1-.14355-.749,1.81472,1.81472,0,0,1,.14355-.73437,1.69076,1.69076,0,0,1,.38867-.56055,1.744,1.744,0,0,1,.57031-.35645,1.94948,1.94948,0,0,1,1.41406.01367,1.36262,1.36262,0,0,1,.5498.38477Z"/><path class="d" d="M69.46924,212.56737a7.08248,7.08248,0,0,0-.36914-2.2627,7.3478,7.3478,0,0,0-.99121-1.9668l.7168-.46484a8.00515,8.00515,0,0,1,1.11816,2.15234,7.86928,7.86928,0,0,1,0,5.084,8.00515,8.00515,0,0,1-1.11816,2.15234l-.7168-.46387a7.36858,7.36858,0,0,0,.99121-1.96777A7.08248,7.08248,0,0,0,69.46924,212.56737Z"/><path class="d" d="M75.15967,215.60545H74.09814v-3.085q0-1.30811.03613-1.66895a3.61446,3.61446,0,0,1,.24512-1.07129,2.795,2.795,0,0,1,.57617-.83691,3.04238,3.04238,0,0,1,.9707-.665,3.05339,3.05339,0,0,1,2.41309-.0127,3.19969,3.19969,0,0,1,.98633.65723,2.58572,2.58572,0,0,1,.6084.87793,4.17055,4.17055,0,0,1,.24707,1.16895q.02051.28418.02051,1.55078v3.085H79.146v-3.12109q0-1.08691-.02637-1.38574a3.37011,3.37011,0,0,0-.17969-.89062,1.63555,1.63555,0,0,0-.34766-.53125,1.94679,1.94679,0,0,0-.6416-.44043,1.937,1.937,0,0,0-1.625.01367,1.88471,1.88471,0,0,0-.66406.48145,1.69892,1.69892,0,0,0-.35547.65625,4.19418,4.19418,0,0,0-.13184.84473q-.01465.26221-.01465,1.252Z"/><path class="d" d="M34.09131,225.22459a7.07807,7.07807,0,0,0,.36914,2.2627,7.32758,7.32758,0,0,0,.99219,1.96777l-.71777.46387a8.00515,8.00515,0,0,1-1.11816-2.15234,7.86928,7.86928,0,0,1,0-5.084,7.999,7.999,0,0,1,1.11816-2.15137l.71777.46387a7.33586,7.33586,0,0,0-.99219,1.9668A7.08248,7.08248,0,0,0,34.09131,225.22459Z"/><path class="d" d="M36.86182,220.79491h2.57324a3.821,3.821,0,0,1,.84375.09473,2.24037,2.24037,0,0,1,.75488.31641,1.706,1.706,0,0,1,.53809.58008,1.78533,1.78533,0,0,1,.20508.89648,1.55277,1.55277,0,0,1-.3584,1.04395,1.82713,1.82713,0,0,1-.94922.58105v.02051a2.17058,2.17058,0,0,1,.66406.18457,1.71376,1.71376,0,0,1,.52734.375,1.59827,1.59827,0,0,1,.34277.54785,1.96006,1.96006,0,0,1,.12207.707,1.91042,1.91042,0,0,1-.22168.93848,1.8907,1.8907,0,0,1-.60156.65918,2.80088,2.80088,0,0,1-.8916.39063,4.35313,4.35313,0,0,1-1.09082.13184h-2.458Zm1.04395,3.15332h1.36133a2.26069,2.26069,0,0,0,.56348-.06836,1.40568,1.40568,0,0,0,.46973-.21094,1.02428,1.02428,0,0,0,.31641-.3584,1.09515,1.09515,0,0,0,.11621-.52246.91459.91459,0,0,0-.44336-.85937,2.36192,2.36192,0,0,0-1.19141-.25879H37.90576Zm0,3.42871h1.30859a3.79254,3.79254,0,0,0,.65918-.05859,1.90664,1.90664,0,0,0,.60059-.20508,1.20537,1.20537,0,0,0,.43262-.39551,1.116,1.116,0,0,0,.16406-.62793,1.05947,1.05947,0,0,0-.4541-.96,2.4075,2.4075,0,0,0-1.30762-.29492H37.90576Z"/><path class="d" d="M47.16064,228.26268H46.09912v-3.085q0-1.30811.03613-1.66895a3.62186,3.62186,0,0,1,.24512-1.07129,2.80714,2.80714,0,0,1,.57617-.83691,3.04011,3.04011,0,0,1,.9707-.66406,3.0035,3.0035,0,0,1,1.22656-.25488,2.96455,2.96455,0,0,1,1.18652.24219,3.17982,3.17982,0,0,1,.98633.65625,2.58572,2.58572,0,0,1,.6084.87793,4.18613,4.18613,0,0,1,.24707,1.16895q.02051.28418.02051,1.55078v3.085H51.147v-3.12109q0-1.08691-.02637-1.38574a3.37852,3.37852,0,0,0-.17969-.89062,1.63229,1.63229,0,0,0-.34766-.53027,1.9323,1.9323,0,0,0-.6416-.44043,1.93214,1.93214,0,0,0-1.625.0127,1.88471,1.88471,0,0,0-.66406.48145,1.69892,1.69892,0,0,0-.35547.65625,4.2055,4.2055,0,0,0-.13184.84473q-.01465.26367-.01465,1.252Z"/><path class="d" d="M62.92725,227.10252a3.35881,3.35881,0,0,1-1.14941.97559,3.59207,3.59207,0,0,1-1.69824.374,4.196,4.196,0,0,1-1.57715-.29,3.67236,3.67236,0,0,1-1.24414-.81152,3.74715,3.74715,0,0,1-.81836-1.24512,4.40774,4.40774,0,0,1,.00586-3.18555,3.61206,3.61206,0,0,1,.833-1.23437,3.79122,3.79122,0,0,1,1.26074-.7959,4.31365,4.31365,0,0,1,1.582-.28516,4.1821,4.1821,0,0,1,.77051.07422,3.77748,3.77748,0,0,1,.748.22168,3.13986,3.13986,0,0,1,.6543.36328,2.39481,2.39481,0,0,1,.50684.501l-.82324.63379a2.04605,2.04605,0,0,0-.77539-.62793,2.40726,2.40726,0,0,0-1.08105-.248,2.81,2.81,0,0,0-1.17578.2373,2.66778,2.66778,0,0,0-.8916.64844,2.93915,2.93915,0,0,0-.56934.95508,3.30664,3.30664,0,0,0-.2002,1.15527,3.4986,3.4986,0,0,0,.19434,1.18066,2.83778,2.83778,0,0,0,.55957.95508,2.57522,2.57522,0,0,0,.88574.6377,2.83163,2.83163,0,0,0,1.166.23242,2.57528,2.57528,0,0,0,1.14941-.25293,2.22021,2.22021,0,0,0,.85449-.73828Z"/><path class="d" d="M66.23,221.334a.73174.73174,0,0,0-.29395-.23437.90367.90367,0,0,0-.39844-.09473.835.835,0,0,0-.40625.09473.874.874,0,0,0-.291.248,1.075,1.075,0,0,0-.1709.34668,1.35648,1.35648,0,0,0-.05664.38867,1.33185,1.33185,0,0,0,.05957.38867,1.09754,1.09754,0,0,0,.17871.3457.91316.91316,0,0,0,.29785.249.88321.88321,0,0,0,.416.09473,1.0798,1.0798,0,0,0,.39258-.07715.74785.74785,0,0,0,.31445-.22461l.52539.53223a1.39678,1.39678,0,0,1-.53613.34668,1.99205,1.99205,0,0,1-.70312.12207,2.053,2.053,0,0,1-.70312-.11914,1.64318,1.64318,0,0,1-.97363-.90918,1.85975,1.85975,0,0,1-.14355-.749,1.82278,1.82278,0,0,1,.14355-.73535,1.67669,1.67669,0,0,1,.38867-.55957,1.73033,1.73033,0,0,1,.57031-.35742,1.94948,1.94948,0,0,1,1.41406.01367,1.355,1.355,0,0,1,.5498.38574Z"/><path class="d" d="M68.63916,225.22459a7.08248,7.08248,0,0,0-.36914-2.2627,7.36236,7.36236,0,0,0-.99121-1.9668l.7168-.46387a7.999,7.999,0,0,1,1.11816,2.15137,7.86928,7.86928,0,0,1,0,5.084,8.00515,8.00515,0,0,1-1.11816,2.15234l-.7168-.46387a7.354,7.354,0,0,0,.99121-1.96777A7.07807,7.07807,0,0,0,68.63916,225.22459Z"/><path class="d" d="M72.16357,223.88573a.69211.69211,0,0,1-.707.69531.69036.69036,0,0,1-.501-.2002.654.654,0,0,1-.20605-.48535.68644.68644,0,0,1,.20117-.48535.66966.66966,0,0,1,.50586-.21094.6801.6801,0,0,1,.50684.20605A.66849.66849,0,0,1,72.16357,223.88573Zm0,3.74414a.68787.68787,0,0,1-.2002.48535.66977.66977,0,0,1-.50684.21094.68018.68018,0,0,1-.501-.20605.65844.65844,0,0,1-.20605-.47949.71707.71707,0,0,1,1.21387-.49609A.66505.66505,0,0,1,72.16357,227.62987Z"/><path class="d" d="M37.30029,238.47069l-2.24023,1.83984-1.12012-1.32812,3.53613-2.84766h1.74414v11.32813H37.30029Z"/><path class="d" d="M42.41455,245.70311l4.36816-4.28809a5.13351,5.13351,0,0,0,.83984-1.03223,2.27248,2.27248,0,0,0,.3125-1.19238,1.63211,1.63211,0,0,0-.52051-1.27148,1.84421,1.84421,0,0,0-1.28711-.47168,1.67952,1.67952,0,0,0-1.3125.55176,2.51009,2.51009,0,0,0-.60742,1.38379l-1.87207-.28809a3.5366,3.5366,0,0,1,.39941-1.2959,3.65,3.65,0,0,1,.81641-1.02441,3.75467,3.75467,0,0,1,1.16016-.67969,4.10933,4.10933,0,0,1,1.44727-.248,4.81,4.81,0,0,1,1.416.208,3.58678,3.58678,0,0,1,1.208.63184,3.04457,3.04457,0,0,1,1.15234,2.47266,3.47351,3.47351,0,0,1-.14355,1.01563,4.06512,4.06512,0,0,1-.39258.8877,5.33173,5.33173,0,0,1-.57617.792,9.0732,9.0732,0,0,1-.71191.72852l-3.26367,3.12012h5.10352v1.75977H42.41455Z"/><path class="d" d="M41.41895,318.81248H40.25879l3.23828-7.46777h.94922l3.207,7.46777H46.47168l-.75977-1.83594H42.168Zm1.11816-2.75293H45.332l-1.3916-3.502Z"/><path class="d" d="M50.82324,311.8828a.74848.74848,0,0,0-.29395-.23437.9159.9159,0,0,0-.39844-.09375.84578.84578,0,0,0-.40625.09375.88812.88812,0,0,0-.291.249,1.075,1.075,0,0,0-.1709.34668,1.35481,1.35481,0,0,0-.05664.3877,1.32689,1.32689,0,0,0,.05957.38867,1.09211,1.09211,0,0,0,.17871.34668.91316.91316,0,0,0,.29785.249.883.883,0,0,0,.416.09375,1.05976,1.05976,0,0,0,.39258-.07715.746.746,0,0,0,.31445-.22363l.52539.53223a1.39678,1.39678,0,0,1-.53613.34668,1.99205,1.99205,0,0,1-.70312.12207,2.07668,2.07668,0,0,1-.70312-.11914,1.641,1.641,0,0,1-.97363-.91016,1.85314,1.85314,0,0,1-.14355-.749,1.81472,1.81472,0,0,1,.14355-.73437,1.69076,1.69076,0,0,1,.38867-.56055,1.744,1.744,0,0,1,.57031-.35645,1.94948,1.94948,0,0,1,1.41406.01367,1.36262,1.36262,0,0,1,.5498.38477Z"/><path class="d" d="M55.874,318.81248H54.8125v-3.085q0-1.30811.03613-1.66895a3.61446,3.61446,0,0,1,.24512-1.07129,2.795,2.795,0,0,1,.57617-.83691,3.04238,3.04238,0,0,1,.9707-.665,3.05339,3.05339,0,0,1,2.41309-.0127,3.19969,3.19969,0,0,1,.98633.65723,2.58572,2.58572,0,0,1,.6084.87793,4.17055,4.17055,0,0,1,.24707,1.16895q.02051.28418.02051,1.55078v3.085H59.86035v-3.12109q0-1.08691-.02637-1.38574a3.37011,3.37011,0,0,0-.17969-.89062,1.63555,1.63555,0,0,0-.34766-.53125,1.94679,1.94679,0,0,0-.6416-.44043,1.937,1.937,0,0,0-1.625.01367,1.88471,1.88471,0,0,0-.66406.48145,1.69892,1.69892,0,0,0-.35547.65625,4.19418,4.19418,0,0,0-.13184.84473q-.01465.26221-.01465,1.252Z"/><path class="d" d="M65.2373,311.34471h2.57324a3.821,3.821,0,0,1,.84375.09473,2.24037,2.24037,0,0,1,.75488.31641,1.706,1.706,0,0,1,.53809.58008,1.78533,1.78533,0,0,1,.20508.89648,1.55454,1.55454,0,0,1-.3584,1.04395,1.832,1.832,0,0,1-.94922.58008v.02148a2.17058,2.17058,0,0,1,.66406.18457,1.72749,1.72749,0,0,1,.52734.374,1.61182,1.61182,0,0,1,.34277.54883,1.9563,1.9563,0,0,1,.12207.707,1.91306,1.91306,0,0,1-.22168.93848,1.8907,1.8907,0,0,1-.60156.65918,2.80088,2.80088,0,0,1-.8916.39063,4.35313,4.35313,0,0,1-1.09082.13184h-2.458Zm1.04395,3.15332h1.36133a2.26069,2.26069,0,0,0,.56348-.06836,1.40568,1.40568,0,0,0,.46973-.21094,1.03288,1.03288,0,0,0,.31641-.3584,1.09515,1.09515,0,0,0,.11621-.52246.9136.9136,0,0,0-.44336-.85937,2.35172,2.35172,0,0,0-1.19141-.25879H66.28125Zm0,3.42773h1.30859a3.79051,3.79051,0,0,0,.65918-.05762,1.90776,1.90776,0,0,0,.60059-.20605,1.18819,1.18819,0,0,0,.43262-.39551,1.11259,1.11259,0,0,0,.16406-.627,1.05839,1.05839,0,0,0-.4541-.96,2.39822,2.39822,0,0,0-1.30762-.2959H66.28125Z"/><path class="d" d="M75.53711,318.81248H74.47559v-3.085q0-1.30811.03613-1.66895a3.61446,3.61446,0,0,1,.24512-1.07129,2.795,2.795,0,0,1,.57617-.83691,3.04238,3.04238,0,0,1,.9707-.665,3.05339,3.05339,0,0,1,2.41309-.0127,3.19969,3.19969,0,0,1,.98633.65723,2.58572,2.58572,0,0,1,.6084.87793,4.17055,4.17055,0,0,1,.24707,1.16895q.02051.28418.02051,1.55078v3.085H79.52344v-3.12109q0-1.08691-.02637-1.38574a3.37011,3.37011,0,0,0-.17969-.89062,1.63555,1.63555,0,0,0-.34766-.53125,1.94679,1.94679,0,0,0-.6416-.44043,1.937,1.937,0,0,0-1.625.01367,1.88471,1.88471,0,0,0-.66406.48145,1.69892,1.69892,0,0,0-.35547.65625,4.19418,4.19418,0,0,0-.13184.84473q-.01465.26221-.01465,1.252Z"/><path class="d" d="M91.30371,317.65233a3.35881,3.35881,0,0,1-1.14941.97559,3.59207,3.59207,0,0,1-1.69824.374,4.196,4.196,0,0,1-1.57715-.29,3.66025,3.66025,0,0,1-1.24414-.8125,3.733,3.733,0,0,1-.81836-1.24414,4.16763,4.16763,0,0,1-.29492-1.58789,4.12462,4.12462,0,0,1,.30078-1.59766,3.61206,3.61206,0,0,1,.833-1.23437,3.79122,3.79122,0,0,1,1.26074-.7959,4.29353,4.29353,0,0,1,1.582-.28516,4.09919,4.09919,0,0,1,.77051.07422,3.77747,3.77747,0,0,1,.748.22168,3.09592,3.09592,0,0,1,.6543.36328,2.39481,2.39481,0,0,1,.50684.501l-.82324.63281a2.05324,2.05324,0,0,0-.77539-.627,2.40726,2.40726,0,0,0-1.08105-.248,2.81,2.81,0,0,0-1.17578.2373,2.65444,2.65444,0,0,0-.8916.64844,2.93915,2.93915,0,0,0-.56934.95508,3.30513,3.30513,0,0,0-.2002,1.1543,3.50431,3.50431,0,0,0,.19434,1.18164,2.84732,2.84732,0,0,0,.55957.95508,2.57523,2.57523,0,0,0,.88574.6377,2.83163,2.83163,0,0,0,1.166.23242,2.57576,2.57576,0,0,0,1.14941-.25391,2.204,2.204,0,0,0,.85449-.73828Z"/><path class="d" d="M94.60645,311.8828a.74848.74848,0,0,0-.29395-.23437.9159.9159,0,0,0-.39844-.09375.84578.84578,0,0,0-.40625.09375.88812.88812,0,0,0-.291.249,1.075,1.075,0,0,0-.1709.34668,1.35481,1.35481,0,0,0-.05664.3877,1.32689,1.32689,0,0,0,.05957.38867,1.09211,1.09211,0,0,0,.17871.34668.91316.91316,0,0,0,.29785.249.883.883,0,0,0,.416.09375,1.05976,1.05976,0,0,0,.39258-.07715.746.746,0,0,0,.31445-.22363l.52539.53223a1.39678,1.39678,0,0,1-.53613.34668,1.99205,1.99205,0,0,1-.70312.12207,2.07668,2.07668,0,0,1-.70312-.11914,1.641,1.641,0,0,1-.97363-.91016,1.85314,1.85314,0,0,1-.14355-.749,1.81472,1.81472,0,0,1,.14355-.73437,1.69076,1.69076,0,0,1,.38867-.56055,1.744,1.744,0,0,1,.57031-.35645,1.94948,1.94948,0,0,1,1.41406.01367,1.36262,1.36262,0,0,1,.5498.38477Z"/><path class="d" d="M97.502,314.43456a.69212.69212,0,0,1-.707.69629.69036.69036,0,0,1-.501-.2002.65555.65555,0,0,1-.20605-.48535.68477.68477,0,0,1,.20117-.48535.66617.66617,0,0,1,.50586-.21094.67645.67645,0,0,1,.50684.20605A.66792.66792,0,0,1,97.502,314.43456Zm0,3.74512a.68787.68787,0,0,1-.2002.48535.66977.66977,0,0,1-.50684.21094.684.684,0,0,1-.501-.20605.659.659,0,0,1-.20605-.48047.69372.69372,0,0,1,.707-.69531.68662.68662,0,0,1,.50684.2002A.66347.66347,0,0,1,97.502,318.17967Z"/><path class="d" d="M44.66992,329.02049l-2.24023,1.83984-1.12012-1.32812,3.53613-2.84766h1.74414v11.32813H44.66992Z"/><path class="d" d="M56.96289,328.41209h-4.624l-.1123,2.44824a3.37748,3.37748,0,0,1,.64844-.1123c.25-.02051.47754-.03125.67969-.03125a4.82709,4.82709,0,0,1,1.54395.23926,3.67969,3.67969,0,0,1,1.24023.69629,3.17253,3.17253,0,0,1,.82422,1.12012,3.72049,3.72049,0,0,1,.2959,1.52832,4.14229,4.14229,0,0,1-.32812,1.6875,3.69557,3.69557,0,0,1-.8877,1.25586,3.86766,3.86766,0,0,1-1.3125.78418,4.65663,4.65663,0,0,1-1.59961.27246,4.16833,4.16833,0,0,1-2.40039-.66406,3.80423,3.80423,0,0,1-1.42383-1.81641l1.74414-.63965a2.23542,2.23542,0,0,0,.7998,1.08008,2.1973,2.1973,0,0,0,1.32813.40723,2.307,2.307,0,0,0,.81543-.14355,1.96962,1.96962,0,0,0,.67285-.416,1.94965,1.94965,0,0,0,.45605-.67969,2.41272,2.41272,0,0,0,.168-.91992,2.3463,2.3463,0,0,0-.22461-1.08789,1.96758,1.96758,0,0,0-.584-.69629,2.19715,2.19715,0,0,0-.80762-.36816,4.01977,4.01977,0,0,0-.91211-.10352,5.09768,5.09768,0,0,0-.67969.04785,5.90158,5.90158,0,0,0-.7041.13574c-.22949.05859-.4541.125-.67187.2002a4.66039,4.66039,0,0,0-.584.23926l.19141-6.19141h6.44824Z"/><path class="d" d="M327.89111,221.93358H326.731l3.23828-7.46777h.94922l3.207,7.46777h-1.18164l-.75977-1.835h-3.54395Zm1.11816-2.75293h2.79492l-1.3916-3.502Z"/><path class="d" d="M337.29541,215.00487a.73175.73175,0,0,0-.29395-.23437.90367.90367,0,0,0-.39844-.09473.835.835,0,0,0-.40625.09473.874.874,0,0,0-.291.248,1.085,1.085,0,0,0-.1709.34668,1.36142,1.36142,0,0,0-.05664.38867,1.33185,1.33185,0,0,0,.05957.38867,1.10252,1.10252,0,0,0,.17871.34668.89861.89861,0,0,0,.29785.248.87167.87167,0,0,0,.416.09473,1.05977,1.05977,0,0,0,.39258-.07715.75453.75453,0,0,0,.31445-.22363l.52539.53125a1.38561,1.38561,0,0,1-.53613.34668,1.97067,1.97067,0,0,1-.70312.123,2.07668,2.07668,0,0,1-.70312-.11914,1.64859,1.64859,0,0,1-.97363-.91016,1.85644,1.85644,0,0,1-.14355-.749,1.82278,1.82278,0,0,1,.14355-.73535,1.69665,1.69665,0,0,1,.38867-.55957,1.73033,1.73033,0,0,1,.57031-.35742,1.91713,1.91713,0,0,1,.69727-.126,1.88625,1.88625,0,0,1,.7168.14063,1.3533,1.3533,0,0,1,.5498.38477Z"/><path class="d" d="M342.34619,221.93358h-1.06152v-3.085q0-1.30811.03613-1.66895a3.62185,3.62185,0,0,1,.24512-1.07129,2.81943,2.81943,0,0,1,.57617-.83691,3.04011,3.04011,0,0,1,.9707-.66406,3.05339,3.05339,0,0,1,2.41309-.0127,3.17982,3.17982,0,0,1,.98633.65625,2.58572,2.58572,0,0,1,.6084.87793,4.18589,4.18589,0,0,1,.24707,1.16992q.02051.28271.02051,1.5498v3.085h-1.05566v-3.12109q0-1.08691-.02637-1.38574a3.387,3.387,0,0,0-.17969-.89062,1.64253,1.64253,0,0,0-.34766-.53027,1.9323,1.9323,0,0,0-.6416-.44043,1.93214,1.93214,0,0,0-1.625.0127,1.89681,1.89681,0,0,0-.66406.48145,1.70268,1.70268,0,0,0-.35547.65723,4.18292,4.18292,0,0,0-.13184.84473q-.01465.26221-.01465,1.251Z"/><path class="d" d="M351.70947,214.46581h2.57324a3.821,3.821,0,0,1,.84375.09473,2.24037,2.24037,0,0,1,.75488.31641,1.71491,1.71491,0,0,1,.53809.58008,1.78533,1.78533,0,0,1,.20508.89648,1.55713,1.55713,0,0,1-.3584,1.04492,1.832,1.832,0,0,1-.94922.58008v.02051a2.17058,2.17058,0,0,1,.66406.18457,1.747,1.747,0,0,1,.52734.375,1.60249,1.60249,0,0,1,.34277.54883,1.95467,1.95467,0,0,1,.12207.70605,1.84831,1.84831,0,0,1-.82324,1.59863,2.82154,2.82154,0,0,1-.8916.38965,4.35313,4.35313,0,0,1-1.09082.13184h-2.458Zm1.04395,3.1543h1.36133a2.26069,2.26069,0,0,0,.56348-.06934,1.368,1.368,0,0,0,.46973-.21094,1.02428,1.02428,0,0,0,.31641-.3584,1.09244,1.09244,0,0,0,.11621-.52246.91559.91559,0,0,0-.44336-.85937,2.36246,2.36246,0,0,0-1.19141-.25781h-1.19238Zm0,3.42773H354.062a3.88821,3.88821,0,0,0,.65918-.05762,1.93256,1.93256,0,0,0,.60059-.20605,1.20537,1.20537,0,0,0,.43262-.39551,1.116,1.116,0,0,0,.16406-.62793,1.06055,1.06055,0,0,0-.4541-.96,2.40751,2.40751,0,0,0-1.30762-.29492h-1.40332Z"/><path class="d" d="M360.65771,215.00487a.73174.73174,0,0,0-.29395-.23437.90367.90367,0,0,0-.39844-.09473.835.835,0,0,0-.40625.09473.874.874,0,0,0-.291.248,1.085,1.085,0,0,0-.1709.34668,1.36142,1.36142,0,0,0-.05664.38867,1.33185,1.33185,0,0,0,.05957.38867,1.10252,1.10252,0,0,0,.17871.34668.89861.89861,0,0,0,.29785.248.87167.87167,0,0,0,.416.09473,1.05977,1.05977,0,0,0,.39258-.07715.75453.75453,0,0,0,.31445-.22363l.52539.53125a1.38561,1.38561,0,0,1-.53613.34668,1.97067,1.97067,0,0,1-.70312.123,2.07668,2.07668,0,0,1-.70312-.11914,1.64859,1.64859,0,0,1-.97363-.91016,1.85644,1.85644,0,0,1-.14355-.749,1.82278,1.82278,0,0,1,.14355-.73535,1.69665,1.69665,0,0,1,.38867-.55957,1.73033,1.73033,0,0,1,.57031-.35742,1.91713,1.91713,0,0,1,.69727-.126,1.88625,1.88625,0,0,1,.7168.14063,1.3533,1.3533,0,0,1,.5498.38477Z"/><path class="d" d="M365.70947,221.93358h-1.06152v-3.085q0-1.30811.03613-1.66895a3.62186,3.62186,0,0,1,.24512-1.07129,2.81943,2.81943,0,0,1,.57617-.83691,3.04011,3.04011,0,0,1,.9707-.66406,3.05339,3.05339,0,0,1,2.41309-.0127,3.17982,3.17982,0,0,1,.98633.65625,2.58572,2.58572,0,0,1,.6084.87793,4.18588,4.18588,0,0,1,.24707,1.16992q.02051.28271.02051,1.5498v3.085H369.6958v-3.12109q0-1.08691-.02637-1.38574a3.387,3.387,0,0,0-.17969-.89062,1.64253,1.64253,0,0,0-.34766-.53027,1.9323,1.9323,0,0,0-.6416-.44043,1.93214,1.93214,0,0,0-1.625.0127,1.89681,1.89681,0,0,0-.66406.48145,1.70268,1.70268,0,0,0-.35547.65723,4.18292,4.18292,0,0,0-.13184.84473q-.01465.26221-.01465,1.251Z"/><path class="d" d="M381.4751,220.77342a3.33769,3.33769,0,0,1-1.14941.97559,3.58044,3.58044,0,0,1-1.69824.375,4.196,4.196,0,0,1-1.57715-.29,3.67471,3.67471,0,0,1-1.24414-.8125,3.72742,3.72742,0,0,1-.81836-1.24512,4.40774,4.40774,0,0,1,.00586-3.18555,3.59865,3.59865,0,0,1,.833-1.2334,3.80915,3.80915,0,0,1,1.26074-.79687,4.31333,4.31333,0,0,1,1.582-.28418,4.17975,4.17975,0,0,1,.77051.07324,3.844,3.844,0,0,1,.748.22168,3.099,3.099,0,0,1,.6543.36426,2.34947,2.34947,0,0,1,.50684.501l-.82324.63281a2.05517,2.05517,0,0,0-.77539-.62793,2.40726,2.40726,0,0,0-1.08105-.248,2.81,2.81,0,0,0-1.17578.2373,2.657,2.657,0,0,0-.8916.64941,2.9244,2.9244,0,0,0-.56934.9541,3.30664,3.30664,0,0,0-.2002,1.15527,3.50839,3.50839,0,0,0,.19434,1.18164,2.84282,2.84282,0,0,0,.55957.9541,2.59053,2.59053,0,0,0,.88574.63867,2.84722,2.84722,0,0,0,1.166.23145,2.57528,2.57528,0,0,0,1.14941-.25293,2.22021,2.22021,0,0,0,.85449-.73828Z"/><path class="d" d="M383.95947,217.55663a.69371.69371,0,0,1-.707.69629.69121.69121,0,0,1-.501-.20117.65188.65188,0,0,1-.20605-.48437.68311.68311,0,0,1,.20117-.48535.66617.66617,0,0,1,.50586-.21094.67931.67931,0,0,1,.50684.20508A.67176.67176,0,0,1,383.95947,217.55663Zm0,3.74414a.68619.68619,0,0,1-.2002.48535.66977.66977,0,0,1-.50684.21094.68018.68018,0,0,1-.501-.20605.65844.65844,0,0,1-.20605-.47949.69533.69533,0,0,1,.707-.69629.69044.69044,0,0,1,.50684.2002A.66505.66505,0,0,1,383.95947,221.30077Z"/><path class="d" d="M331.14209,232.14159l-2.24023,1.84082-1.12012-1.32812,3.53613-2.84863H333.062v11.32813h-1.91992Z"/><path class="d" d="M337.90576,241.13377l2.91113-4.208-.01562-.01562a2.07872,2.07872,0,0,1-.584.16016,4.72629,4.72629,0,0,1-.63184.04785,3.55076,3.55076,0,0,1-1.4082-.28027,3.69621,3.69621,0,0,1-1.15234-.76758,3.51919,3.51919,0,0,1-.77539-1.15234,3.64833,3.64833,0,0,1-.28027-1.43164,4.03828,4.03828,0,0,1,.32031-1.63184,3.7537,3.7537,0,0,1,.87207-1.25684,3.80858,3.80858,0,0,1,1.31152-.7998,4.664,4.664,0,0,1,1.624-.28027,4.47525,4.47525,0,0,1,1.63965.29688,4.03746,4.03746,0,0,1,1.32031.82324,3.76738,3.76738,0,0,1,1.18457,2.76855,4.91929,4.91929,0,0,1-.08008.90332,4.61306,4.61306,0,0,1-.23242.81641,6.89385,6.89385,0,0,1-.36816.792q-.21533.3999-.4873.832l-2.832,4.38379Zm4.38379-7.77539a2.36472,2.36472,0,0,0-.15234-.84863,2.19594,2.19594,0,0,0-.43945-.71191,2.158,2.158,0,0,0-.68848-.49609,2.12776,2.12776,0,0,0-.89551-.18359,2.07288,2.07288,0,0,0-1.57617.63184,2.28329,2.28329,0,0,0-.60059,1.63965,2.5235,2.5235,0,0,0,.15234.88867,1.92116,1.92116,0,0,0,.43945.69531,2.13193,2.13193,0,0,0,.68066.45605,2.18374,2.18374,0,0,0,.87207.168,2.4145,2.4145,0,0,0,.8877-.15918,2.03875,2.03875,0,0,0,.7041-.45605,2.013,2.013,0,0,0,.45605-.71191A2.528,2.528,0,0,0,342.28955,233.35838Z"/><path class="d" d="M345.86768,239.374l4.36816-4.28809a5.10663,5.10663,0,0,0,.83984-1.03223,2.269,2.269,0,0,0,.3125-1.19141,1.63422,1.63422,0,0,0-.52051-1.27246,1.84421,1.84421,0,0,0-1.28711-.47168,1.67952,1.67952,0,0,0-1.3125.55176,2.51319,2.51319,0,0,0-.60742,1.38379l-1.87207-.28809a3.54237,3.54237,0,0,1,.39941-1.2959,3.64565,3.64565,0,0,1,.81641-1.02344,3.7378,3.7378,0,0,1,1.16016-.68066,4.10933,4.10933,0,0,1,1.44727-.248,4.8424,4.8424,0,0,1,1.416.208,3.58885,3.58885,0,0,1,1.208.63281,3.04445,3.04445,0,0,1,1.15234,2.47168,3.47351,3.47351,0,0,1-.14355,1.01563,4.05221,4.05221,0,0,1-.39258.88867,5.43513,5.43513,0,0,1-.57617.792,9.22793,9.22793,0,0,1-.71191.72754l-3.26367,3.12012h5.10352v1.75977h-7.53613Z"/><path class="d" d="M115.71777,219.68358h-1.16016l3.23828-7.46777h.94922l3.207,7.46777h-1.18164l-.75977-1.835H116.4668Zm1.11816-2.75293h2.79492l-1.3916-3.502Z"/><path class="d" d="M126.43945,219.68358h-1.06152v-3.085q0-1.30811.03613-1.66895a3.62185,3.62185,0,0,1,.24512-1.07129,2.81943,2.81943,0,0,1,.57617-.83691,3.04011,3.04011,0,0,1,.9707-.66406,3.05339,3.05339,0,0,1,2.41309-.0127,3.17982,3.17982,0,0,1,.98633.65625,2.58572,2.58572,0,0,1,.6084.87793,4.18588,4.18588,0,0,1,.24707,1.16992q.02051.28271.02051,1.5498v3.085h-1.05566v-3.12109q0-1.08691-.02637-1.38574a3.387,3.387,0,0,0-.17969-.89062,1.64253,1.64253,0,0,0-.34766-.53027,1.9323,1.9323,0,0,0-.6416-.44043,1.93214,1.93214,0,0,0-1.625.0127,1.89681,1.89681,0,0,0-.66406.48145,1.70268,1.70268,0,0,0-.35547.65723,4.18291,4.18291,0,0,0-.13184.84473q-.01465.26221-.01465,1.251Z"/><path class="d" d="M135.80273,212.21581H138.376a3.821,3.821,0,0,1,.84375.09473,2.24037,2.24037,0,0,1,.75488.31641,1.71491,1.71491,0,0,1,.53809.58008,1.78533,1.78533,0,0,1,.20508.89648,1.55713,1.55713,0,0,1-.3584,1.04492,1.832,1.832,0,0,1-.94922.58008v.02051a2.17058,2.17058,0,0,1,.66406.18457,1.747,1.747,0,0,1,.52734.375,1.60249,1.60249,0,0,1,.34277.54883,1.95467,1.95467,0,0,1,.12207.70605,1.84831,1.84831,0,0,1-.82324,1.59863,2.82155,2.82155,0,0,1-.8916.38965,4.35313,4.35313,0,0,1-1.09082.13184h-2.458Zm1.04395,3.1543H138.208a2.26069,2.26069,0,0,0,.56348-.06934,1.368,1.368,0,0,0,.46973-.21094,1.02428,1.02428,0,0,0,.31641-.3584,1.09244,1.09244,0,0,0,.11621-.52246.91559.91559,0,0,0-.44336-.85937,2.36246,2.36246,0,0,0-1.19141-.25781h-1.19238Zm0,3.42773h1.30859a3.88821,3.88821,0,0,0,.65918-.05762,1.93257,1.93257,0,0,0,.60059-.20605,1.20537,1.20537,0,0,0,.43262-.39551,1.116,1.116,0,0,0,.16406-.62793,1.06055,1.06055,0,0,0-.4541-.96,2.40751,2.40751,0,0,0-1.30762-.29492h-1.40332Z"/><path class="d" d="M146.10254,219.68358H145.041v-3.085q0-1.30811.03613-1.66895a3.62186,3.62186,0,0,1,.24512-1.07129,2.81943,2.81943,0,0,1,.57617-.83691,3.04011,3.04011,0,0,1,.9707-.66406,3.05339,3.05339,0,0,1,2.41309-.0127,3.17982,3.17982,0,0,1,.98633.65625,2.58572,2.58572,0,0,1,.6084.87793,4.18588,4.18588,0,0,1,.24707,1.16992q.02051.28271.02051,1.5498v3.085h-1.05566v-3.12109q0-1.08691-.02637-1.38574a3.387,3.387,0,0,0-.17969-.89062,1.64253,1.64253,0,0,0-.34766-.53027,1.9323,1.9323,0,0,0-.6416-.44043,1.93214,1.93214,0,0,0-1.625.0127,1.89681,1.89681,0,0,0-.66406.48145,1.70268,1.70268,0,0,0-.35547.65723,4.18292,4.18292,0,0,0-.13184.84473q-.01465.26221-.01465,1.251Z"/><path class="d" d="M161.86914,218.52342a3.33769,3.33769,0,0,1-1.14941.97559,3.58044,3.58044,0,0,1-1.69824.375,4.196,4.196,0,0,1-1.57715-.29,3.67471,3.67471,0,0,1-1.24414-.8125,3.72742,3.72742,0,0,1-.81836-1.24512,4.40774,4.40774,0,0,1,.00586-3.18555,3.59865,3.59865,0,0,1,.833-1.2334,3.80915,3.80915,0,0,1,1.26074-.79687,4.31333,4.31333,0,0,1,1.582-.28418,4.17975,4.17975,0,0,1,.77051.07324,3.844,3.844,0,0,1,.748.22168,3.099,3.099,0,0,1,.6543.36426,2.34947,2.34947,0,0,1,.50684.501l-.82324.63281a2.05517,2.05517,0,0,0-.77539-.62793,2.40726,2.40726,0,0,0-1.08105-.248,2.81,2.81,0,0,0-1.17578.2373,2.657,2.657,0,0,0-.8916.64941,2.9244,2.9244,0,0,0-.56934.9541,3.30664,3.30664,0,0,0-.2002,1.15527,3.50839,3.50839,0,0,0,.19434,1.18164,2.84282,2.84282,0,0,0,.55957.9541,2.59052,2.59052,0,0,0,.88574.63867,2.84722,2.84722,0,0,0,1.166.23145,2.57528,2.57528,0,0,0,1.14941-.25293,2.22021,2.22021,0,0,0,.85449-.73828Z"/><path class="d" d="M164.35352,215.30663a.69371.69371,0,0,1-.707.69629.69121.69121,0,0,1-.501-.20117.65188.65188,0,0,1-.20605-.48437.68311.68311,0,0,1,.20117-.48535.66617.66617,0,0,1,.50586-.21094.67931.67931,0,0,1,.50684.20508A.67176.67176,0,0,1,164.35352,215.30663Zm0,3.74414a.68619.68619,0,0,1-.2002.48535.66977.66977,0,0,1-.50684.21094.68018.68018,0,0,1-.501-.20605.65844.65844,0,0,1-.20605-.47949.69533.69533,0,0,1,.707-.69629.69044.69044,0,0,1,.50684.2002A.66505.66505,0,0,1,164.35352,219.05077Z"/><path class="d" d="M118.96875,229.89159l-2.24023,1.84082-1.12012-1.32812,3.53613-2.84863h1.74414v11.32813h-1.91992Z"/><path class="d" d="M128.05859,227.26756a4.59015,4.59015,0,0,1,1.38867.208,3.41277,3.41277,0,0,1,1.1416.6084,2.821,2.821,0,0,1,1.0459,2.25586,2.66935,2.66935,0,0,1-.49219,1.64844,2.55447,2.55447,0,0,1-1.25391.91211v.03125a2.78126,2.78126,0,0,1,1.50488.96875,2.91676,2.91676,0,0,1,.457.80762,2.77342,2.77342,0,0,1,.168.97559,3.40536,3.40536,0,0,1-.3125,1.49609,3.23878,3.23878,0,0,1-.84766,1.09668,3.59707,3.59707,0,0,1-1.25586.67188,5.38766,5.38766,0,0,1-3.07227,0,3.60572,3.60572,0,0,1-1.25586-.67187,3.23878,3.23878,0,0,1-.84766-1.09668,3.40536,3.40536,0,0,1-.3125-1.49609,2.80151,2.80151,0,0,1,.64844-1.82324,2.72429,2.72429,0,0,1,.67969-.584,3.09691,3.09691,0,0,1,.7998-.34473v-.03125a2.80438,2.80438,0,0,1-1.26367-.87988,2.45183,2.45183,0,0,1-.49609-1.60059,2.98059,2.98059,0,0,1,.2793-1.30371,2.92308,2.92308,0,0,1,.7666-.99219,3.5489,3.5489,0,0,1,1.13281-.63184A4.24409,4.24409,0,0,1,128.05859,227.26756Zm.00781,6.46484a2.05971,2.05971,0,0,0-.77637.14453,1.97339,1.97339,0,0,0-.623.39355,1.74634,1.74634,0,0,0-.416.61035,2.027,2.027,0,0,0-.15234.79492,1.77416,1.77416,0,0,0,.55957,1.39844,2.04185,2.04185,0,0,0,1.4082.498,2.02065,2.02065,0,0,0,1.39258-.498,1.77416,1.77416,0,0,0,.55957-1.39844,1.98751,1.98751,0,0,0-.15234-.7793,1.859,1.859,0,0,0-.416-.61816,1.904,1.904,0,0,0-.624-.40137A2.01068,2.01068,0,0,0,128.06641,233.73241Zm0-4.86426a1.64667,1.64667,0,0,0-1.17578.42969,1.52238,1.52238,0,0,0-.45605,1.16211,1.64931,1.64931,0,0,0,.44043,1.16211,1.53671,1.53671,0,0,0,1.19141.47754,1.63748,1.63748,0,0,0,1.64844-1.63965,1.55292,1.55292,0,0,0-.13672-.66016,1.51808,1.51808,0,0,0-.36719-.502,1.68207,1.68207,0,0,0-.52832-.31836A1.7382,1.7382,0,0,0,128.06641,228.86815Z"/><path class="d" d="M41.41846,129.36913H40.2583l3.23828-7.46875h.94922l3.207,7.46875H46.47119l-.75977-1.83594H42.16748Zm1.11816-2.75391h2.79492l-1.3916-3.502Z"/><path class="d" d="M52.14014,129.36913H51.07861v-3.08594q0-1.30664.03613-1.668a3.6215,3.6215,0,0,1,.24512-1.07227,2.80357,2.80357,0,0,1,.57617-.83594,3.04239,3.04239,0,0,1,.9707-.665,3.05339,3.05339,0,0,1,2.41309-.0127,3.2144,3.2144,0,0,1,.98633.65625,2.59842,2.59842,0,0,1,.6084.87891,4.17055,4.17055,0,0,1,.24707,1.16895c.01367.18848.02051.70605.02051,1.5498v3.08594H56.12646V126.248q0-1.08691-.02637-1.38672a3.387,3.387,0,0,0-.17969-.89062,1.64253,1.64253,0,0,0-.34766-.53027A1.9323,1.9323,0,0,0,54.93115,123a1.937,1.937,0,0,0-1.625.01367,1.88267,1.88267,0,0,0-.66406.48047,1.70268,1.70268,0,0,0-.35547.65723,4.19418,4.19418,0,0,0-.13184.84473q-.01465.26221-.01465,1.252Z"/><path class="d" d="M61.50342,121.90038h2.57324a3.765,3.765,0,0,1,.84375.0957,2.20165,2.20165,0,0,1,.75488.31641,1.69709,1.69709,0,0,1,.53809.58008,1.78027,1.78027,0,0,1,.20508.89648,1.5563,1.5563,0,0,1-.3584,1.04395,1.832,1.832,0,0,1-.94922.58008v.02051a2.17159,2.17159,0,0,1,.66406.18555,1.72749,1.72749,0,0,1,.52734.374,1.61182,1.61182,0,0,1,.34277.54883,1.95467,1.95467,0,0,1,.12207.70605,1.84831,1.84831,0,0,1-.82324,1.59863,2.79968,2.79968,0,0,1-.8916.38965,4.35263,4.35263,0,0,1-1.09082.13281h-2.458Zm1.04395,3.1543h1.36133a2.30723,2.30723,0,0,0,.56348-.06836,1.40568,1.40568,0,0,0,.46973-.21094,1.036,1.036,0,0,0,.31641-.35937,1.09111,1.09111,0,0,0,.11621-.52148.9136.9136,0,0,0-.44336-.85937,2.35172,2.35172,0,0,0-1.19141-.25879H62.54736Zm0,3.42773H63.856a3.88821,3.88821,0,0,0,.65918-.05762,1.90776,1.90776,0,0,0,.60059-.20605,1.19672,1.19672,0,0,0,.43262-.39551,1.11375,1.11375,0,0,0,.16406-.62793,1.05774,1.05774,0,0,0-.4541-.959,2.39821,2.39821,0,0,0-1.30762-.2959H62.54736Z"/><path class="d" d="M70.45166,122.43944a.73174.73174,0,0,0-.29395-.23437.9159.9159,0,0,0-.39844-.09375.84578.84578,0,0,0-.40625.09375.88536.88536,0,0,0-.291.248,1.09,1.09,0,0,0-.1709.34766,1.35481,1.35481,0,0,0-.05664.3877,1.32689,1.32689,0,0,0,.05957.38867,1.10252,1.10252,0,0,0,.17871.34668.89861.89861,0,0,0,.29785.248.87167.87167,0,0,0,.416.09473,1.05977,1.05977,0,0,0,.39258-.07715.746.746,0,0,0,.31445-.22363l.52539.53223a1.395,1.395,0,0,1-.53613.3457,1.97067,1.97067,0,0,1-.70312.123,2.07667,2.07667,0,0,1-.70312-.11914,1.641,1.641,0,0,1-.97363-.91016,1.85314,1.85314,0,0,1-.14355-.749,1.82278,1.82278,0,0,1,.14355-.73535,1.69665,1.69665,0,0,1,.38867-.55957,1.744,1.744,0,0,1,.57031-.35645,1.91764,1.91764,0,0,1,.69727-.127,1.88625,1.88625,0,0,1,.7168.14063,1.36262,1.36262,0,0,1,.5498.38477Z"/><path class="d" d="M75.50342,129.36913H74.44189v-3.08594q0-1.30664.03613-1.668a3.6215,3.6215,0,0,1,.24512-1.07227,2.80357,2.80357,0,0,1,.57617-.83594,3.04239,3.04239,0,0,1,.9707-.665,3.05339,3.05339,0,0,1,2.41309-.0127,3.2144,3.2144,0,0,1,.98633.65625,2.59842,2.59842,0,0,1,.6084.87891,4.17055,4.17055,0,0,1,.24707,1.16895c.01367.18848.02051.70605.02051,1.5498v3.08594H79.48975V126.248q0-1.08691-.02637-1.38672a3.387,3.387,0,0,0-.17969-.89062,1.64253,1.64253,0,0,0-.34766-.53027A1.9323,1.9323,0,0,0,78.29443,123a1.937,1.937,0,0,0-1.625.01367,1.88267,1.88267,0,0,0-.66406.48047,1.70268,1.70268,0,0,0-.35547.65723,4.19418,4.19418,0,0,0-.13184.84473q-.01465.26221-.01465,1.252Z"/><path class="d" d="M91.269,128.209a3.34569,3.34569,0,0,1-1.14941.97461,3.58044,3.58044,0,0,1-1.69824.375,4.196,4.196,0,0,1-1.57715-.29,3.66025,3.66025,0,0,1-1.24414-.8125,3.72742,3.72742,0,0,1-.81836-1.24512,4.40774,4.40774,0,0,1,.00586-3.18555,3.608,3.608,0,0,1,.833-1.2334,3.79122,3.79122,0,0,1,1.26074-.7959,4.29353,4.29353,0,0,1,1.582-.28516,4.09919,4.09919,0,0,1,.77051.07422,3.84181,3.84181,0,0,1,.748.2207,3.143,3.143,0,0,1,.6543.36426,2.37192,2.37192,0,0,1,.50684.501l-.82324.63281a2.04411,2.04411,0,0,0-.77539-.627,2.39443,2.39443,0,0,0-1.08105-.248,2.80975,2.80975,0,0,0-1.17578.23633,2.657,2.657,0,0,0-.8916.64941,2.94486,2.94486,0,0,0-.56934.9541,3.31454,3.31454,0,0,0-.2002,1.15527,3.50839,3.50839,0,0,0,.19434,1.18164,2.83328,2.83328,0,0,0,.55957.9541,2.565,2.565,0,0,0,.88574.63867,2.84747,2.84747,0,0,0,1.166.23242,2.57576,2.57576,0,0,0,1.14941-.25391,2.204,2.204,0,0,0,.85449-.73828Z"/><path class="d" d="M94.57178,122.43944a.73174.73174,0,0,0-.29395-.23437.9159.9159,0,0,0-.39844-.09375.84578.84578,0,0,0-.40625.09375.88536.88536,0,0,0-.291.248,1.09,1.09,0,0,0-.1709.34766,1.35481,1.35481,0,0,0-.05664.3877,1.32689,1.32689,0,0,0,.05957.38867,1.10252,1.10252,0,0,0,.17871.34668.89861.89861,0,0,0,.29785.248.87167.87167,0,0,0,.416.09473,1.05977,1.05977,0,0,0,.39258-.07715.746.746,0,0,0,.31445-.22363l.52539.53223a1.395,1.395,0,0,1-.53613.3457,1.97067,1.97067,0,0,1-.70312.123,2.07667,2.07667,0,0,1-.70312-.11914,1.641,1.641,0,0,1-.97363-.91016,1.85314,1.85314,0,0,1-.14355-.749,1.82278,1.82278,0,0,1,.14355-.73535,1.69665,1.69665,0,0,1,.38867-.55957,1.744,1.744,0,0,1,.57031-.35645,1.91764,1.91764,0,0,1,.69727-.127,1.88625,1.88625,0,0,1,.7168.14063,1.36262,1.36262,0,0,1,.5498.38477Z"/><path class="d" d="M97.46729,124.9912a.71213.71213,0,0,1-1.208.49512.65188.65188,0,0,1-.20605-.48437.68311.68311,0,0,1,.20117-.48535.66617.66617,0,0,1,.50586-.21094.67645.67645,0,0,1,.50684.20605A.66792.66792,0,0,1,97.46729,124.9912Zm0,3.74512a.68563.68563,0,0,1-.2002.48438.66977.66977,0,0,1-.50684.21094.68308.68308,0,0,1-.501-.20508.659.659,0,0,1-.20605-.48047.69372.69372,0,0,1,.707-.69531.68968.68968,0,0,1,.50684.19922A.66725.66725,0,0,1,97.46729,128.73631Z"/><path class="d" d="M44.66943,139.57616,42.4292,141.417l-1.12012-1.32812,3.53613-2.84863h1.74414v11.32813H44.66943Z"/><path class="d" d="M56.9624,138.96873h-4.624l-.1123,2.44824a3.30337,3.30337,0,0,1,.64844-.1123c.25-.02148.47754-.03125.67969-.03125a4.82709,4.82709,0,0,1,1.54395.23926,3.66318,3.66318,0,0,1,1.24023.69629,3.17762,3.17762,0,0,1,.82422,1.11914,3.72845,3.72845,0,0,1,.2959,1.5293,4.14229,4.14229,0,0,1-.32812,1.6875,3.7051,3.7051,0,0,1-.8877,1.25586,3.86766,3.86766,0,0,1-1.3125.78418,4.68,4.68,0,0,1-1.59961.27246,4.17571,4.17571,0,0,1-2.40039-.66406,3.81343,3.81343,0,0,1-1.42383-1.81641l1.74414-.64062a2.22644,2.22644,0,0,0,.7998,1.08008,2.19151,2.19151,0,0,0,1.32813.4082,2.307,2.307,0,0,0,.81543-.14355,2,2,0,0,0,.67285-.416,1.9448,1.9448,0,0,0,.45605-.68066,2.40565,2.40565,0,0,0,.168-.91992,2.34908,2.34908,0,0,0-.22461-1.08789,1.9727,1.9727,0,0,0-.584-.69531,2.19715,2.19715,0,0,0-.80762-.36816,4.02057,4.02057,0,0,0-.91211-.10449,4.94679,4.94679,0,0,0-.67969.04883,6.10132,6.10132,0,0,0-.7041.13477c-.22949.05957-.4541.126-.67187.20117a4.66041,4.66041,0,0,0-.584.23926l.19141-6.19238H56.9624Z"/><path class="d" d="M558.68457,218.50291a3.35881,3.35881,0,0,1-1.14941.97559,3.59207,3.59207,0,0,1-1.69824.374,4.196,4.196,0,0,1-1.57715-.29,3.66025,3.66025,0,0,1-1.24414-.8125,3.733,3.733,0,0,1-.81836-1.24414,4.16763,4.16763,0,0,1-.29492-1.58789,4.12462,4.12462,0,0,1,.30078-1.59766,3.61206,3.61206,0,0,1,.833-1.23437,3.79122,3.79122,0,0,1,1.26074-.7959,4.29353,4.29353,0,0,1,1.582-.28516,4.09919,4.09919,0,0,1,.77051.07422,3.77748,3.77748,0,0,1,.748.22168,3.09592,3.09592,0,0,1,.6543.36328,2.39481,2.39481,0,0,1,.50684.501l-.82324.63281a2.05324,2.05324,0,0,0-.77539-.627,2.40726,2.40726,0,0,0-1.08105-.248,2.81,2.81,0,0,0-1.17578.2373,2.65444,2.65444,0,0,0-.8916.64844,2.93915,2.93915,0,0,0-.56934.95508,3.30513,3.30513,0,0,0-.2002,1.1543,3.50431,3.50431,0,0,0,.19434,1.18164,2.84732,2.84732,0,0,0,.55957.95508,2.57523,2.57523,0,0,0,.88574.6377,2.83163,2.83163,0,0,0,1.166.23242,2.57576,2.57576,0,0,0,1.14941-.25391,2.204,2.204,0,0,0,.85449-.73828Z"/><path class="d" d="M561.16895,215.28514a.69212.69212,0,0,1-.707.69629.69036.69036,0,0,1-.501-.2002.65555.65555,0,0,1-.20605-.48535.68477.68477,0,0,1,.20117-.48535.66617.66617,0,0,1,.50586-.21094.67645.67645,0,0,1,.50684.20605A.66792.66792,0,0,1,561.16895,215.28514Zm0,3.74512a.68787.68787,0,0,1-.2002.48535.66977.66977,0,0,1-.50684.21094.684.684,0,0,1-.501-.20605.659.659,0,0,1-.20605-.48047.69372.69372,0,0,1,.707-.69531.68662.68662,0,0,1,.50684.2002A.66347.66347,0,0,1,561.16895,219.03026Z"/><path class="d" d="M552.47852,237.1035l4.36816-4.28809a5.13351,5.13351,0,0,0,.83984-1.03223,2.27248,2.27248,0,0,0,.3125-1.19238,1.63211,1.63211,0,0,0-.52051-1.27148,1.84494,1.84494,0,0,0-1.28711-.47266,1.68026,1.68026,0,0,0-1.3125.55273,2.507,2.507,0,0,0-.60742,1.38379l-1.87207-.28809a3.53085,3.53085,0,0,1,.39941-1.2959,3.65,3.65,0,0,1,.81641-1.02441,3.71667,3.71667,0,0,1,1.16016-.67969,4.10933,4.10933,0,0,1,1.44727-.248,4.81,4.81,0,0,1,1.416.208,3.58678,3.58678,0,0,1,1.208.63184,3.04445,3.04445,0,0,1,1.15234,2.47168,3.47544,3.47544,0,0,1-.14355,1.0166,4.06513,4.06513,0,0,1-.39258.8877,5.38294,5.38294,0,0,1-.57617.792,9.07321,9.07321,0,0,1-.71191.72852l-3.26367,3.12012h5.10352v1.75977h-7.53613Z"/><path class="d" d="M566.50586,236.51073h-5.23242v-1.69531l4.81641-7.28027h2.30371v7.32813h1.584v1.64746h-1.584v2.35254h-1.8877Zm0-6.71973h-.03223l-3.21582,5.07227h3.248Z"/><path class="d" d="M579.4209,233.1992a10.69382,10.69382,0,0,1-.26367,2.47949,5.874,5.874,0,0,1-.76855,1.87207,3.56409,3.56409,0,0,1-1.248,1.18457,3.42966,3.42966,0,0,1-1.70312.416,3.48053,3.48053,0,0,1-1.71289-.416,3.61557,3.61557,0,0,1-1.26367-1.18457,5.7694,5.7694,0,0,1-.77637-1.87207,11.79463,11.79463,0,0,1,0-4.96,5.78768,5.78768,0,0,1,.77637-1.87207,3.62157,3.62157,0,0,1,1.26367-1.18359,3.48053,3.48053,0,0,1,1.71289-.416,3.42966,3.42966,0,0,1,1.70313.416,3.5699,3.5699,0,0,1,1.248,1.18359,5.89287,5.89287,0,0,1,.76855,1.87207A10.70847,10.70847,0,0,1,579.4209,233.1992Zm-1.96777,0q0-.5918-.07227-1.34375a6.7,6.7,0,0,0-.28809-1.4248,3.15115,3.15115,0,0,0-.61621-1.12793,1.31858,1.31858,0,0,0-1.03906-.45605,1.33822,1.33822,0,0,0-1.05664.45605,3.16615,3.16615,0,0,0-.61621,1.12793,7.15443,7.15443,0,0,0-.2959,1.4248,11.31443,11.31443,0,0,0,0,2.6875,6.837,6.837,0,0,0,.2959,1.4082,3.17794,3.17794,0,0,0,.61621,1.1123,1.33745,1.33745,0,0,0,1.05664.45508,1.31778,1.31778,0,0,0,1.03906-.45508,3.16253,3.16253,0,0,0,.61621-1.1123,6.41506,6.41506,0,0,0,.28809-1.4082Q577.45264,233.79149,577.45313,233.1992Z"/><path class="d" d="M.90723,338.73045H3.48047a3.821,3.821,0,0,1,.84375.09473,2.24037,2.24037,0,0,1,.75488.31641,1.706,1.706,0,0,1,.53809.58008,1.78533,1.78533,0,0,1,.20508.89648,1.55454,1.55454,0,0,1-.3584,1.04395,1.832,1.832,0,0,1-.94922.58008v.02148a2.17058,2.17058,0,0,1,.66406.18457,1.72749,1.72749,0,0,1,.52734.374,1.61182,1.61182,0,0,1,.34277.54883,1.9563,1.9563,0,0,1,.12207.707,1.91306,1.91306,0,0,1-.22168.93848,1.8907,1.8907,0,0,1-.60156.65918,2.80088,2.80088,0,0,1-.8916.39063,4.35313,4.35313,0,0,1-1.09082.13184H.90723Zm1.04395,3.15332H3.3125a2.26069,2.26069,0,0,0,.56348-.06836,1.40568,1.40568,0,0,0,.46973-.21094,1.03288,1.03288,0,0,0,.31641-.3584,1.09515,1.09515,0,0,0,.11621-.52246.9136.9136,0,0,0-.44336-.85937,2.35172,2.35172,0,0,0-1.19141-.25879H1.95117Zm0,3.42773H3.25977a3.79051,3.79051,0,0,0,.65918-.05762,1.90776,1.90776,0,0,0,.60059-.20605,1.18819,1.18819,0,0,0,.43262-.39551,1.11259,1.11259,0,0,0,.16406-.627,1.05839,1.05839,0,0,0-.4541-.96,2.39822,2.39822,0,0,0-1.30762-.2959H1.95117Z"/><path class="d" d="M8.89355,341.8203a.69212.69212,0,0,1-.707.69629.69036.69036,0,0,1-.501-.2002.65555.65555,0,0,1-.20605-.48535.68477.68477,0,0,1,.20117-.48535.66617.66617,0,0,1,.50586-.21094.67645.67645,0,0,1,.50684.20605A.66792.66792,0,0,1,8.89355,341.8203Zm0,3.74512a.68787.68787,0,0,1-.2002.48535.66977.66977,0,0,1-.50684.21094.684.684,0,0,1-.501-.20605.659.659,0,0,1-.20605-.48047.69372.69372,0,0,1,.707-.69531.68662.68662,0,0,1,.50684.2002A.66347.66347,0,0,1,8.89355,345.56541Z"/><path class="d" d="M7.05566,354.0703,4.16016,358.2617l.01563.0166a2.24112,2.24112,0,0,1,.56836-.14453,4.71454,4.71454,0,0,1,.63184-.04785,3.5542,3.5542,0,0,1,1.4082.28027,3.68057,3.68057,0,0,1,1.15137.76758,3.51685,3.51685,0,0,1,.77637,1.15234,3.64833,3.64833,0,0,1,.28027,1.43164,4.06286,4.06286,0,0,1-.32031,1.63281,3.75942,3.75942,0,0,1-.87207,1.25586,3.812,3.812,0,0,1-1.31152.7998,4.664,4.664,0,0,1-1.624.28027,4.46245,4.46245,0,0,1-1.64844-.2959,4.0616,4.0616,0,0,1-1.31152-.82422,3.76738,3.76738,0,0,1-1.18457-2.76855,4.8354,4.8354,0,0,1,.08008-.90332,4.63678,4.63678,0,0,1,.23242-.81641,6.80632,6.80632,0,0,1,.36816-.792q.21533-.3999.4873-.832l2.832-4.38379Zm-4.38379,7.77637a2.36328,2.36328,0,0,0,.15234.84766,2.07726,2.07726,0,0,0,1.12793,1.18359,2.18762,2.18762,0,0,0,.89551.17578,2.1022,2.1022,0,0,0,1.57617-.61523,2.228,2.228,0,0,0,.60059-1.624,2.5235,2.5235,0,0,0-.15234-.88867,1.91034,1.91034,0,0,0-.44043-.69531,2.11689,2.11689,0,0,0-.67969-.45605,2.1871,2.1871,0,0,0-.87207-.168,2.41108,2.41108,0,0,0-.8877.16016,1.99064,1.99064,0,0,0-1.16016,1.168A2.5242,2.5242,0,0,0,2.67188,361.84666Z"/><path class="d" d="M18.459,359.73436a10.69382,10.69382,0,0,1-.26367,2.47949,5.874,5.874,0,0,1-.76855,1.87207,3.56409,3.56409,0,0,1-1.248,1.18457,3.42966,3.42966,0,0,1-1.70312.416,3.48053,3.48053,0,0,1-1.71289-.416,3.61557,3.61557,0,0,1-1.26367-1.18457,5.7694,5.7694,0,0,1-.77637-1.87207,11.79463,11.79463,0,0,1,0-4.96,5.78768,5.78768,0,0,1,.77637-1.87207,3.62157,3.62157,0,0,1,1.26367-1.18359,3.48053,3.48053,0,0,1,1.71289-.416,3.42966,3.42966,0,0,1,1.70312.416,3.5699,3.5699,0,0,1,1.248,1.18359,5.89287,5.89287,0,0,1,.76855,1.87207A10.70847,10.70847,0,0,1,18.459,359.73436Zm-1.96777,0q0-.5918-.07227-1.34375a6.7,6.7,0,0,0-.28809-1.4248,3.15115,3.15115,0,0,0-.61621-1.12793,1.31858,1.31858,0,0,0-1.03906-.45605,1.33822,1.33822,0,0,0-1.05664.45605,3.16615,3.16615,0,0,0-.61621,1.12793,7.15442,7.15442,0,0,0-.2959,1.4248,11.31443,11.31443,0,0,0,0,2.6875,6.837,6.837,0,0,0,.2959,1.4082,3.17794,3.17794,0,0,0,.61621,1.1123,1.33745,1.33745,0,0,0,1.05664.45508,1.31778,1.31778,0,0,0,1.03906-.45508,3.16254,3.16254,0,0,0,.61621-1.1123,6.41506,6.41506,0,0,0,.28809-1.4082Q16.49072,360.32664,16.49121,359.73436Z"/><path class="d" d="M1.21387,80.28123H.05371L3.292,72.81346h.94922l3.207,7.46777H6.2666l-.75977-1.835H1.96289ZM2.332,77.52831H5.127l-1.3916-3.502Z"/><path class="d" d="M9.8623,75.90428a.69371.69371,0,0,1-.707.69629.69121.69121,0,0,1-.501-.20117.65188.65188,0,0,1-.20605-.48437.68311.68311,0,0,1,.20117-.48535.66617.66617,0,0,1,.50586-.21094.67931.67931,0,0,1,.50684.20508A.67176.67176,0,0,1,9.8623,75.90428Zm0,3.74414a.68619.68619,0,0,1-.2002.48535.66977.66977,0,0,1-.50684.21094.68018.68018,0,0,1-.501-.20605.65844.65844,0,0,1-.20605-.47949.69533.69533,0,0,1,.707-.69629.69044.69044,0,0,1,.50684.2002A.66505.66505,0,0,1,9.8623,79.64842Z"/><path class="d" d="M7.05664,88.15331,4.16113,92.34569l.01563.01563a2.28624,2.28624,0,0,1,.56836-.14355,4.55834,4.55834,0,0,1,.63184-.04785,3.57071,3.57071,0,0,1,1.4082.2793,3.70014,3.70014,0,0,1,1.15137.76855,3.49656,3.49656,0,0,1,.77637,1.15234,3.64833,3.64833,0,0,1,.28027,1.43164,4.05476,4.05476,0,0,1-.32031,1.63184,3.74962,3.74962,0,0,1-.87207,1.25586,3.812,3.812,0,0,1-1.31152.7998,4.664,4.664,0,0,1-1.624.28027,4.46245,4.46245,0,0,1-1.64844-.2959,4.04511,4.04511,0,0,1-1.31152-.82422A3.76306,3.76306,0,0,1,.7207,95.88182a4.846,4.846,0,0,1,.08008-.9043,4.62633,4.62633,0,0,1,.23242-.81543,6.73254,6.73254,0,0,1,.36816-.792q.21533-.3999.4873-.832l2.832-4.38477ZM2.67285,95.92967a2.35944,2.35944,0,0,0,.15234.84766,2.0768,2.0768,0,0,0,.43945.7041,2.10112,2.10112,0,0,0,.68848.48047,2.20372,2.20372,0,0,0,.89551.17578,2.09921,2.09921,0,0,0,1.57617-.61621,2.22639,2.22639,0,0,0,.60059-1.624,2.518,2.518,0,0,0-.15234-.8877,1.91431,1.91431,0,0,0-.44043-.69629,2.149,2.149,0,0,0-.67969-.45605,2.20414,2.20414,0,0,0-.87207-.168,2.41108,2.41108,0,0,0-.8877.16016,1.99064,1.99064,0,0,0-1.16016,1.168A2.528,2.528,0,0,0,2.67285,95.92967Z"/><path class="d" d="M18.46,93.81737a10.70251,10.70251,0,0,1-.26367,2.48047,5.89287,5.89287,0,0,1-.76855,1.87207,3.5699,3.5699,0,0,1-1.248,1.18359,3.42966,3.42966,0,0,1-1.70312.416,3.48053,3.48053,0,0,1-1.71289-.416A3.62157,3.62157,0,0,1,11.5,98.16991a5.78768,5.78768,0,0,1-.77637-1.87207,11.79463,11.79463,0,0,1,0-4.96A5.7694,5.7694,0,0,1,11.5,89.46581a3.63357,3.63357,0,0,1,1.26367-1.18457,3.49111,3.49111,0,0,1,1.71289-.416,3.44,3.44,0,0,1,1.70313.416,3.5817,3.5817,0,0,1,1.248,1.18457,5.874,5.874,0,0,1,.76855,1.87207A10.69382,10.69382,0,0,1,18.46,93.81737Zm-1.96777,0q0-.5918-.07227-1.34375a6.70331,6.70331,0,0,0-.28809-1.42383,3.13462,3.13462,0,0,0-.61621-1.12793,1.31858,1.31858,0,0,0-1.03906-.45605,1.33822,1.33822,0,0,0-1.05664.45605,3.14946,3.14946,0,0,0-.61621,1.12793,7.15914,7.15914,0,0,0-.2959,1.42383,11.32262,11.32262,0,0,0,0,2.68848,6.82748,6.82748,0,0,0,.2959,1.40723,3.16925,3.16925,0,0,0,.61621,1.1123,1.33822,1.33822,0,0,0,1.05664.45605,1.31858,1.31858,0,0,0,1.03906-.45605,3.15393,3.15393,0,0,0,.61621-1.1123,6.4062,6.4062,0,0,0,.28809-1.40723C16.46777,94.66014,16.49219,94.21288,16.49219,93.81737Z"/><path class="d" d="M137.74756,308.24608a7.07216,7.07216,0,0,0,.36914,2.26172,7.3214,7.3214,0,0,0,.99219,1.9668l-.71777.46484a8.00515,8.00515,0,0,1-1.11816-2.15234,7.86928,7.86928,0,0,1,0-5.084,8.01974,8.01974,0,0,1,1.11816-2.15234l.71777.46484a7.3214,7.3214,0,0,0-.99219,1.9668A7.084,7.084,0,0,0,137.74756,308.24608Z"/><path class="d" d="M140.51807,303.81541h2.57324a3.821,3.821,0,0,1,.84375.09473,2.24038,2.24038,0,0,1,.75488.31641,1.71491,1.71491,0,0,1,.53809.58008,1.78533,1.78533,0,0,1,.20508.89648,1.55713,1.55713,0,0,1-.3584,1.04492,1.832,1.832,0,0,1-.94922.58008v.02051a2.17058,2.17058,0,0,1,.66406.18457,1.747,1.747,0,0,1,.52734.375,1.6025,1.6025,0,0,1,.34277.54883,1.95092,1.95092,0,0,1,.12207.70605,1.85154,1.85154,0,0,1-.82324,1.59863,2.82154,2.82154,0,0,1-.8916.38965,4.35312,4.35312,0,0,1-1.09082.13184h-2.458Zm1.04395,3.15332h1.36133a2.26069,2.26069,0,0,0,.56348-.06836,1.368,1.368,0,0,0,.46973-.21094,1.03288,1.03288,0,0,0,.31641-.3584,1.09244,1.09244,0,0,0,.11621-.52246.91459.91459,0,0,0-.44336-.85937,2.36246,2.36246,0,0,0-1.19141-.25781H141.562Zm0,3.42773h1.30859a3.88615,3.88615,0,0,0,.65918-.05664,1.9089,1.9089,0,0,0,.60059-.207,1.19416,1.19416,0,0,0,.43262-.39453,1.11817,1.11817,0,0,0,.16406-.62793,1.06055,1.06055,0,0,0-.4541-.96,2.3988,2.3988,0,0,0-1.30762-.29492H141.562Z"/><path class="d" d="M150.81689,311.28319h-1.06152v-3.085q0-1.30811.03613-1.66895a3.61446,3.61446,0,0,1,.24512-1.07129,2.81943,2.81943,0,0,1,.57617-.83691,3.06558,3.06558,0,0,1,3.38379-.67773,3.19969,3.19969,0,0,1,.98633.65723,2.58572,2.58572,0,0,1,.6084.87793,4.17809,4.17809,0,0,1,.24707,1.16992q.02051.28271.02051,1.5498v3.085h-1.05566v-3.12109q0-1.08691-.02637-1.38574a3.387,3.387,0,0,0-.17969-.89062,1.63229,1.63229,0,0,0-.34766-.53027,1.93427,1.93427,0,0,0-.6416-.44141,1.937,1.937,0,0,0-1.625.01367,1.88471,1.88471,0,0,0-.66406.48145,1.70268,1.70268,0,0,0-.35547.65723,4.18377,4.18377,0,0,0-.13184.84375q-.01465.26367-.01465,1.252Z"/><path class="d" d="M160.48682,311.28319h-1.16016l3.23828-7.46777h.94922l3.207,7.46777h-1.18164l-.75977-1.83594h-3.54395Zm1.11816-2.75293h2.79492l-1.3916-3.502Z"/><path class="d" d="M169.89111,304.3535a.74848.74848,0,0,0-.29395-.23437.9159.9159,0,0,0-.39844-.09375.84578.84578,0,0,0-.40625.09375.88812.88812,0,0,0-.291.249,1.075,1.075,0,0,0-.1709.34668,1.36143,1.36143,0,0,0-.05664.38867,1.33185,1.33185,0,0,0,.05957.38867,1.08716,1.08716,0,0,0,.17871.3457.90133.90133,0,0,0,.29785.249.87167.87167,0,0,0,.416.09473,1.04194,1.04194,0,0,0,.39258-.07812.74415.74415,0,0,0,.31445-.22266l.52539.53125a1.38561,1.38561,0,0,1-.53613.34668,1.99205,1.99205,0,0,1-.70312.12207,2.053,2.053,0,0,1-.70312-.11914,1.641,1.641,0,0,1-.97363-.91016,1.85165,1.85165,0,0,1-.14355-.748,1.81946,1.81946,0,0,1,.14355-.73535,1.68661,1.68661,0,0,1,.38867-.55957,1.73033,1.73033,0,0,1,.57031-.35742,1.94948,1.94948,0,0,1,1.41406.01367,1.37208,1.37208,0,0,1,.5498.38477Z"/><path class="d" d="M172.29932,308.24608a7.084,7.084,0,0,0-.36914-2.26367,7.3478,7.3478,0,0,0-.99121-1.9668l.7168-.46484a8.01974,8.01974,0,0,1,1.11816,2.15234,7.86928,7.86928,0,0,1,0,5.084,8.00515,8.00515,0,0,1-1.11816,2.15234l-.7168-.46484a7.3478,7.3478,0,0,0,.99121-1.9668A7.07216,7.07216,0,0,0,172.29932,308.24608Z"/><path class="d" d="M177.98975,311.28319h-1.06152v-3.085q0-1.30811.03613-1.66895a3.61445,3.61445,0,0,1,.24512-1.07129,2.81943,2.81943,0,0,1,.57617-.83691,3.06558,3.06558,0,0,1,3.38379-.67773,3.19969,3.19969,0,0,1,.98633.65723,2.58572,2.58572,0,0,1,.6084.87793,4.1781,4.1781,0,0,1,.24707,1.16992q.02051.28271.02051,1.5498v3.085h-1.05566v-3.12109q0-1.08691-.02637-1.38574a3.387,3.387,0,0,0-.17969-.89062,1.63229,1.63229,0,0,0-.34766-.53027,1.93427,1.93427,0,0,0-.6416-.44141,1.937,1.937,0,0,0-1.625.01367,1.88471,1.88471,0,0,0-.66406.48145,1.70268,1.70268,0,0,0-.35547.65723,4.18378,4.18378,0,0,0-.13184.84375q-.01465.26367-.01465,1.252Z"/><path class="d" d="M137.74756,320.90331a7.08248,7.08248,0,0,0,.36914,2.2627,7.3214,7.3214,0,0,0,.99219,1.9668l-.71777.46484a8.01974,8.01974,0,0,1-1.11816-2.15234,7.86928,7.86928,0,0,1,0-5.084,8.00515,8.00515,0,0,1,1.11816-2.15234l.71777.46484a7.3214,7.3214,0,0,0-.99219,1.9668A7.07367,7.07367,0,0,0,137.74756,320.90331Z"/><path class="d" d="M146.76416,322.78123a3.34569,3.34569,0,0,1-1.14941.97461,3.58044,3.58044,0,0,1-1.69824.375,4.196,4.196,0,0,1-1.57715-.29,3.66025,3.66025,0,0,1-1.24414-.8125,3.72742,3.72742,0,0,1-.81836-1.24512,4.40774,4.40774,0,0,1,.00586-3.18555,3.608,3.608,0,0,1,.833-1.2334,3.79122,3.79122,0,0,1,1.26074-.7959,4.29353,4.29353,0,0,1,1.582-.28516,4.09919,4.09919,0,0,1,.77051.07422,3.84181,3.84181,0,0,1,.748.2207,3.143,3.143,0,0,1,.6543.36426,2.37192,2.37192,0,0,1,.50684.501l-.82324.63281a2.04411,2.04411,0,0,0-.77539-.627,2.39443,2.39443,0,0,0-1.08105-.248,2.80975,2.80975,0,0,0-1.17578.23633,2.657,2.657,0,0,0-.8916.64941,2.94487,2.94487,0,0,0-.56934.9541,3.31454,3.31454,0,0,0-.2002,1.15527,3.50839,3.50839,0,0,0,.19434,1.18164,2.83328,2.83328,0,0,0,.55957.9541,2.565,2.565,0,0,0,.88574.63867,2.84747,2.84747,0,0,0,1.166.23242,2.57576,2.57576,0,0,0,1.14941-.25391,2.204,2.204,0,0,0,.85449-.73828Z"/><path class="d" d="M151.35693,323.94139h-1.06152v-3.08594q0-1.30664.03613-1.668a3.6215,3.6215,0,0,1,.24512-1.07227,2.80357,2.80357,0,0,1,.57617-.83594,3.04238,3.04238,0,0,1,.9707-.665,3.05339,3.05339,0,0,1,2.41309-.0127,3.2144,3.2144,0,0,1,.98633.65625,2.59842,2.59842,0,0,1,.6084.87891,4.17055,4.17055,0,0,1,.24707,1.16895c.01367.18848.02051.70605.02051,1.5498v3.08594h-1.05566V320.8203q0-1.08691-.02637-1.38672a3.387,3.387,0,0,0-.17969-.89062,1.64253,1.64253,0,0,0-.34766-.53027,1.9323,1.9323,0,0,0-.6416-.44043,1.937,1.937,0,0,0-1.625.01367,1.88267,1.88267,0,0,0-.66406.48047,1.70268,1.70268,0,0,0-.35547.65723,4.19418,4.19418,0,0,0-.13184.84473q-.01465.26221-.01465,1.252Z"/><path class="d" d="M161.02686,323.94139H159.8667l3.23828-7.46875h.94922l3.207,7.46875h-1.18164l-.75977-1.83594h-3.54395Zm1.11816-2.75391h2.79492l-1.3916-3.502Z"/><path class="d" d="M170.43018,317.0117a.73175.73175,0,0,0-.29395-.23437.9159.9159,0,0,0-.39844-.09375.84578.84578,0,0,0-.40625.09375.88536.88536,0,0,0-.291.248,1.09,1.09,0,0,0-.1709.34766,1.35481,1.35481,0,0,0-.05664.3877,1.32689,1.32689,0,0,0,.05957.38867,1.10252,1.10252,0,0,0,.17871.34668.89861.89861,0,0,0,.29785.248.87168.87168,0,0,0,.416.09473,1.05977,1.05977,0,0,0,.39258-.07715.746.746,0,0,0,.31445-.22363l.52539.53223a1.395,1.395,0,0,1-.53613.3457,1.97067,1.97067,0,0,1-.70312.123,2.07667,2.07667,0,0,1-.70312-.11914,1.641,1.641,0,0,1-.97363-.91016,1.85314,1.85314,0,0,1-.14355-.749,1.82278,1.82278,0,0,1,.14355-.73535,1.69665,1.69665,0,0,1,.38867-.55957,1.744,1.744,0,0,1,.57031-.35645,1.91764,1.91764,0,0,1,.69727-.127,1.88625,1.88625,0,0,1,.7168.14063,1.36262,1.36262,0,0,1,.5498.38477Z"/><path class="d" d="M172.83936,320.90331a7.07366,7.07366,0,0,0-.36914-2.2627,7.3478,7.3478,0,0,0-.99121-1.9668l.7168-.46484a8.00515,8.00515,0,0,1,1.11816,2.15234,7.86928,7.86928,0,0,1,0,5.084,8.01974,8.01974,0,0,1-1.11816,2.15234l-.7168-.46484a7.3478,7.3478,0,0,0,.99121-1.9668A7.08248,7.08248,0,0,0,172.83936,320.90331Z"/><path class="d" d="M176.36377,319.56346a.71213.71213,0,0,1-1.208.49512.65188.65188,0,0,1-.20605-.48437.68311.68311,0,0,1,.20117-.48535.66617.66617,0,0,1,.50586-.21094.67645.67645,0,0,1,.50684.20605A.66792.66792,0,0,1,176.36377,319.56346Zm0,3.74512a.68563.68563,0,0,1-.2002.48438.66977.66977,0,0,1-.50684.21094.68308.68308,0,0,1-.501-.20508.659.659,0,0,1-.20605-.48047.69372.69372,0,0,1,.707-.69531.68968.68968,0,0,1,.50684.19922A.66725.66725,0,0,1,176.36377,323.30858Z"/><path class="d" d="M140.95654,334.14842l-2.24023,1.83984-1.12012-1.32812,3.53613-2.84766h1.74414v11.32813h-1.91992Z"/><path class="d" d="M153.24951,333.541h-4.624l-.1123,2.44727a3.383,3.383,0,0,1,.64844-.11133c.25-.02148.47754-.03223.67969-.03223a4.82709,4.82709,0,0,1,1.54395.23926,3.66522,3.66522,0,0,1,1.24023.69727,3.16015,3.16015,0,0,1,.82422,1.11914,3.72372,3.72372,0,0,1,.2959,1.52832,4.14375,4.14375,0,0,1-.32812,1.68848,3.7051,3.7051,0,0,1-.8877,1.25586,3.86542,3.86542,0,0,1-1.3125.7832,4.65663,4.65663,0,0,1-1.59961.27246,4.16833,4.16833,0,0,1-2.40039-.66406,3.80627,3.80627,0,0,1-1.42383-1.81543l1.74414-.64062a2.23092,2.23092,0,0,0,.7998,1.08008,2.198,2.198,0,0,0,1.32813.4082,2.30759,2.30759,0,0,0,.81543-.14453,1.96962,1.96962,0,0,0,.67285-.416,1.94966,1.94966,0,0,0,.45605-.67969,2.40565,2.40565,0,0,0,.168-.91992,2.3463,2.3463,0,0,0-.22461-1.08789,1.97615,1.97615,0,0,0-.584-.69629,2.2131,2.2131,0,0,0-.80762-.36816,4.07583,4.07583,0,0,0-.91211-.10352,5.09768,5.09768,0,0,0-.67969.04785,6.10251,6.10251,0,0,0-.7041.13574c-.22949.05859-.4541.125-.67187.2002a4.97537,4.97537,0,0,0-.584.23926l.19141-6.19141h6.44824Z"/><path class="d" d="M136.70605,114.80174a7.08248,7.08248,0,0,0,.36914,2.2627,7.3214,7.3214,0,0,0,.99219,1.9668l-.71777.46484a8.00515,8.00515,0,0,1-1.11816-2.15234,7.86928,7.86928,0,0,1,0-5.084,8.00515,8.00515,0,0,1,1.11816-2.15234l.71777.46484a7.3214,7.3214,0,0,0-.99219,1.9668A7.08248,7.08248,0,0,0,136.70605,114.80174Z"/><path class="d" d="M139.88379,117.83983h-1.16016l3.23828-7.46777h.94922l3.207,7.46777h-1.18164l-.75977-1.83594h-3.54395Zm1.11816-2.75293h2.79492l-1.3916-3.502Z"/><path class="d" d="M150.60547,117.83983h-1.06152v-3.085q0-1.30811.03613-1.66895a3.61446,3.61446,0,0,1,.24512-1.07129,2.795,2.795,0,0,1,.57617-.83691,3.04238,3.04238,0,0,1,.9707-.665,3.05339,3.05339,0,0,1,2.41309-.0127,3.19969,3.19969,0,0,1,.98633.65723,2.58572,2.58572,0,0,1,.6084.87793,4.17054,4.17054,0,0,1,.24707,1.16895q.02051.28418.02051,1.55078v3.085H154.5918v-3.12109q0-1.08691-.02637-1.38574a3.37012,3.37012,0,0,0-.17969-.89062,1.63555,1.63555,0,0,0-.34766-.53125,1.94679,1.94679,0,0,0-.6416-.44043,1.937,1.937,0,0,0-1.625.01367,1.88471,1.88471,0,0,0-.66406.48145,1.69892,1.69892,0,0,0-.35547.65625,4.19418,4.19418,0,0,0-.13184.84473q-.01465.26221-.01465,1.252Z"/><path class="d" d="M159.96973,110.37206H162.543a3.821,3.821,0,0,1,.84375.09473,2.24037,2.24037,0,0,1,.75488.31641,1.706,1.706,0,0,1,.53809.58008,1.78533,1.78533,0,0,1,.20508.89648,1.55454,1.55454,0,0,1-.3584,1.04395,1.832,1.832,0,0,1-.94922.58008v.02148a2.17058,2.17058,0,0,1,.66406.18457,1.72749,1.72749,0,0,1,.52734.374,1.61182,1.61182,0,0,1,.34277.54883,1.9563,1.9563,0,0,1,.12207.707,1.91306,1.91306,0,0,1-.22168.93848,1.8907,1.8907,0,0,1-.60156.65918,2.80088,2.80088,0,0,1-.8916.39063,4.35313,4.35313,0,0,1-1.09082.13184h-2.458Zm1.04395,3.15332H162.375a2.26069,2.26069,0,0,0,.56348-.06836,1.40568,1.40568,0,0,0,.46973-.21094,1.03289,1.03289,0,0,0,.31641-.3584,1.09515,1.09515,0,0,0,.11621-.52246.9136.9136,0,0,0-.44336-.85937,2.35172,2.35172,0,0,0-1.19141-.25879h-1.19238Zm0,3.42773h1.30859a3.7905,3.7905,0,0,0,.65918-.05762,1.90776,1.90776,0,0,0,.60059-.20605,1.18819,1.18819,0,0,0,.43262-.39551,1.11259,1.11259,0,0,0,.16406-.627,1.05839,1.05839,0,0,0-.4541-.96,2.39822,2.39822,0,0,0-1.30762-.2959h-1.40332Z"/><path class="d" d="M168.918,110.91014a.74848.74848,0,0,0-.29395-.23437.9159.9159,0,0,0-.39844-.09375.84578.84578,0,0,0-.40625.09375.88812.88812,0,0,0-.291.249,1.075,1.075,0,0,0-.1709.34668,1.35481,1.35481,0,0,0-.05664.3877,1.32689,1.32689,0,0,0,.05957.38867,1.09211,1.09211,0,0,0,.17871.34668.91316.91316,0,0,0,.29785.249.883.883,0,0,0,.416.09375,1.05977,1.05977,0,0,0,.39258-.07715.746.746,0,0,0,.31445-.22363l.52539.53223a1.39678,1.39678,0,0,1-.53613.34668,1.99205,1.99205,0,0,1-.70312.12207,2.07667,2.07667,0,0,1-.70312-.11914,1.641,1.641,0,0,1-.97363-.91016,1.85314,1.85314,0,0,1-.14355-.749,1.81472,1.81472,0,0,1,.14355-.73437,1.69076,1.69076,0,0,1,.38867-.56055,1.744,1.744,0,0,1,.57031-.35645,1.94948,1.94948,0,0,1,1.41406.01367,1.36262,1.36262,0,0,1,.5498.38477Z"/><path class="d" d="M171.32715,114.80174a7.08248,7.08248,0,0,0-.36914-2.2627,7.3478,7.3478,0,0,0-.99121-1.9668l.7168-.46484a8.00515,8.00515,0,0,1,1.11816,2.15234,7.86928,7.86928,0,0,1,0,5.084,8.00515,8.00515,0,0,1-1.11816,2.15234l-.7168-.46484a7.3478,7.3478,0,0,0,.99121-1.9668A7.08248,7.08248,0,0,0,171.32715,114.80174Z"/><path class="d" d="M177.0166,117.83983h-1.06152v-3.085q0-1.30811.03613-1.66895a3.61446,3.61446,0,0,1,.24512-1.07129,2.795,2.795,0,0,1,.57617-.83691,3.04238,3.04238,0,0,1,.9707-.665,3.05339,3.05339,0,0,1,2.41309-.0127,3.19969,3.19969,0,0,1,.98633.65723,2.58572,2.58572,0,0,1,.6084.87793,4.17054,4.17054,0,0,1,.24707,1.16895q.02051.28418.02051,1.55078v3.085h-1.05566v-3.12109q0-1.08691-.02637-1.38574a3.37011,3.37011,0,0,0-.17969-.89062,1.63555,1.63555,0,0,0-.34766-.53125,1.94679,1.94679,0,0,0-.6416-.44043,1.937,1.937,0,0,0-1.625.01367,1.88471,1.88471,0,0,0-.66406.48145,1.69892,1.69892,0,0,0-.35547.65625,4.19418,4.19418,0,0,0-.13184.84473q-.01465.26221-.01465,1.252Z"/><path class="d" d="M136.70605,127.45995a7.07216,7.07216,0,0,0,.36914,2.26172,7.32759,7.32759,0,0,0,.99219,1.96777l-.71777.46387a7.999,7.999,0,0,1-1.11816-2.15137,7.87222,7.87222,0,0,1,0-5.085,7.999,7.999,0,0,1,1.11816-2.15137l.71777.46387a7.32759,7.32759,0,0,0-.99219,1.96777A7.07367,7.07367,0,0,0,136.70605,127.45995Z"/><path class="d" d="M145.72266,129.3369a3.33769,3.33769,0,0,1-1.14941.97559,3.58044,3.58044,0,0,1-1.69824.375,4.196,4.196,0,0,1-1.57715-.29,3.67471,3.67471,0,0,1-1.24414-.8125,3.72742,3.72742,0,0,1-.81836-1.24512,4.40774,4.40774,0,0,1,.00586-3.18555,3.59865,3.59865,0,0,1,.833-1.2334,3.80915,3.80915,0,0,1,1.26074-.79687,4.31333,4.31333,0,0,1,1.582-.28418,4.17975,4.17975,0,0,1,.77051.07324,3.844,3.844,0,0,1,.748.22168,3.099,3.099,0,0,1,.6543.36426,2.34948,2.34948,0,0,1,.50684.501l-.82324.63281a2.05517,2.05517,0,0,0-.77539-.62793,2.40726,2.40726,0,0,0-1.08105-.248,2.81,2.81,0,0,0-1.17578.2373,2.657,2.657,0,0,0-.8916.64941,2.9244,2.9244,0,0,0-.56934.9541,3.30664,3.30664,0,0,0-.2002,1.15527,3.50839,3.50839,0,0,0,.19434,1.18164,2.84282,2.84282,0,0,0,.55957.9541,2.59053,2.59053,0,0,0,.88574.63867,2.84722,2.84722,0,0,0,1.166.23145,2.57528,2.57528,0,0,0,1.14941-.25293,2.22021,2.22021,0,0,0,.85449-.73828Z"/><path class="d" d="M150.31543,130.49706h-1.06152v-3.085q0-1.30811.03613-1.66895a3.62185,3.62185,0,0,1,.24512-1.07129,2.81943,2.81943,0,0,1,.57617-.83691,3.04011,3.04011,0,0,1,.9707-.66406,3.05339,3.05339,0,0,1,2.41309-.0127,3.17982,3.17982,0,0,1,.98633.65625,2.58572,2.58572,0,0,1,.6084.87793,4.18589,4.18589,0,0,1,.24707,1.16992q.02051.28271.02051,1.5498v3.085h-1.05566V127.376q0-1.08691-.02637-1.38574a3.387,3.387,0,0,0-.17969-.89062,1.64253,1.64253,0,0,0-.34766-.53027,1.9323,1.9323,0,0,0-.6416-.44043,1.93214,1.93214,0,0,0-1.625.0127,1.89681,1.89681,0,0,0-.66406.48145,1.70268,1.70268,0,0,0-.35547.65723,4.18291,4.18291,0,0,0-.13184.84473q-.01465.26221-.01465,1.251Z"/><path class="d" d="M159.67969,123.02928h2.57324a3.821,3.821,0,0,1,.84375.09473,2.24037,2.24037,0,0,1,.75488.31641,1.71491,1.71491,0,0,1,.53809.58008,1.78533,1.78533,0,0,1,.20508.89648,1.55713,1.55713,0,0,1-.3584,1.04492,1.832,1.832,0,0,1-.94922.58008v.02051a2.17058,2.17058,0,0,1,.66406.18457,1.747,1.747,0,0,1,.52734.375,1.6025,1.6025,0,0,1,.34277.54883,1.95467,1.95467,0,0,1,.12207.70605,1.84831,1.84831,0,0,1-.82324,1.59863,2.82154,2.82154,0,0,1-.8916.38965,4.35313,4.35313,0,0,1-1.09082.13184h-2.458Zm1.04395,3.1543H162.085a2.26069,2.26069,0,0,0,.56348-.06934,1.368,1.368,0,0,0,.46973-.21094,1.02428,1.02428,0,0,0,.31641-.3584,1.09244,1.09244,0,0,0,.11621-.52246.91559.91559,0,0,0-.44336-.85937,2.36246,2.36246,0,0,0-1.19141-.25781h-1.19238Zm0,3.42773h1.30859a3.88822,3.88822,0,0,0,.65918-.05762,1.93256,1.93256,0,0,0,.60059-.20605,1.20537,1.20537,0,0,0,.43262-.39551,1.116,1.116,0,0,0,.16406-.62793,1.06055,1.06055,0,0,0-.4541-.96,2.4075,2.4075,0,0,0-1.30762-.29492h-1.40332Z"/><path class="d" d="M168.62793,123.56834a.73174.73174,0,0,0-.29395-.23437.90367.90367,0,0,0-.39844-.09473.835.835,0,0,0-.40625.09473.874.874,0,0,0-.291.248,1.085,1.085,0,0,0-.1709.34668,1.36143,1.36143,0,0,0-.05664.38867,1.33185,1.33185,0,0,0,.05957.38867,1.10252,1.10252,0,0,0,.17871.34668.89861.89861,0,0,0,.29785.248.87167.87167,0,0,0,.416.09473,1.05977,1.05977,0,0,0,.39258-.07715.75453.75453,0,0,0,.31445-.22363l.52539.53125a1.38561,1.38561,0,0,1-.53613.34668,1.97067,1.97067,0,0,1-.70312.123,2.07667,2.07667,0,0,1-.70312-.11914,1.64859,1.64859,0,0,1-.97363-.91016,1.85644,1.85644,0,0,1-.14355-.749,1.82278,1.82278,0,0,1,.14355-.73535,1.69665,1.69665,0,0,1,.38867-.55957,1.73033,1.73033,0,0,1,.57031-.35742,1.91712,1.91712,0,0,1,.69727-.126,1.88625,1.88625,0,0,1,.7168.14063,1.3533,1.3533,0,0,1,.5498.38477Z"/><path class="d" d="M171.03711,127.45995a7.07367,7.07367,0,0,0-.36914-2.2627,7.354,7.354,0,0,0-.99121-1.96777l.7168-.46387a7.999,7.999,0,0,1,1.11816,2.15137,7.87222,7.87222,0,0,1,0,5.085,7.999,7.999,0,0,1-1.11816,2.15137l-.7168-.46387a7.354,7.354,0,0,0,.99121-1.96777A7.07216,7.07216,0,0,0,171.03711,127.45995Z"/><path class="d" d="M174.56055,126.1201a.69371.69371,0,0,1-.707.69629.69121.69121,0,0,1-.501-.20117.65188.65188,0,0,1-.20605-.48437.68311.68311,0,0,1,.20117-.48535.66617.66617,0,0,1,.50586-.21094.67931.67931,0,0,1,.50684.20508A.67176.67176,0,0,1,174.56055,126.1201Zm0,3.74414a.68619.68619,0,0,1-.2002.48535.66977.66977,0,0,1-.50684.21094.68018.68018,0,0,1-.501-.20605.65844.65844,0,0,1-.20605-.47949.69533.69533,0,0,1,.707-.69629.69044.69044,0,0,1,.50684.2002A.66505.66505,0,0,1,174.56055,129.86424Z"/><path class="d" d="M139.915,140.70506l-2.24023,1.83984-1.12012-1.32812,3.53613-2.84766H141.835v11.32813H139.915Z"/><path class="d" d="M152.208,140.09666h-4.624l-.1123,2.44824a3.37748,3.37748,0,0,1,.64844-.1123c.25-.02051.47754-.03125.67969-.03125a4.8271,4.8271,0,0,1,1.54395.23926,3.67969,3.67969,0,0,1,1.24023.69629,3.17253,3.17253,0,0,1,.82422,1.12012,3.72049,3.72049,0,0,1,.2959,1.52832,4.14229,4.14229,0,0,1-.32812,1.6875,3.69557,3.69557,0,0,1-.8877,1.25586,3.86766,3.86766,0,0,1-1.3125.78418,4.65663,4.65663,0,0,1-1.59961.27246,4.16833,4.16833,0,0,1-2.40039-.66406,3.80423,3.80423,0,0,1-1.42383-1.81641l1.74414-.63965a2.23542,2.23542,0,0,0,.7998,1.08008,2.1973,2.1973,0,0,0,1.32813.40723,2.307,2.307,0,0,0,.81543-.14355,1.96962,1.96962,0,0,0,.67285-.416,1.94965,1.94965,0,0,0,.45605-.67969,2.41272,2.41272,0,0,0,.168-.91992,2.34631,2.34631,0,0,0-.22461-1.08789,1.96759,1.96759,0,0,0-.584-.69629,2.19715,2.19715,0,0,0-.80762-.36816,4.01977,4.01977,0,0,0-.91211-.10352,5.09768,5.09768,0,0,0-.67969.04785,5.90158,5.90158,0,0,0-.7041.13574c-.22949.05859-.4541.125-.67187.2002a4.6604,4.6604,0,0,0-.584.23926l.19141-6.19141H152.208Z"/></g></svg>