<svg xmlns="http://www.w3.org/2000/svg" viewBox="0 0 776.28662 618.24561"><defs><style>.a{isolation:isolate;}.b{fill:#d2e5b3;mix-blend-mode:overlay;}.c{fill:#3d4752;}</style></defs><title>venn diagrams</title><g class="a"><circle class="b" cx="482.15554" cy="195.76071" r="195.76071"/><circle class="b" cx="296.94697" cy="195.76071" r="195.76071"/><circle class="b" cx="389.55126" cy="356.15604" r="195.76071"/><path class="c" d="M358.13818,436.5874a4.00807,4.00807,0,0,0-1.46484-1.3833,4.203,4.203,0,0,0-2.11523-.53711,4.87487,4.87487,0,0,0-1.042.11377,3.07852,3.07852,0,0,0-.92773.3584,1.97019,1.97019,0,0,0-.65039.61816,1.6626,1.6626,0,0,0-.24414.92773,1.54238,1.54238,0,0,0,.87891,1.44824,10.77812,10.77812,0,0,0,2.63574.86279,16.49785,16.49785,0,0,1,2.05078.61816,6.45058,6.45058,0,0,1,1.64355.895,3.8702,3.8702,0,0,1,1.09082,1.28564,3.75989,3.75989,0,0,1,.39063,1.75781,4.72143,4.72143,0,0,1-.52148,2.311,4.51881,4.51881,0,0,1-1.38281,1.5459,5.65874,5.65874,0,0,1-1.96973.8623,9.9242,9.9242,0,0,1-2.27832.26074,9.01973,9.01973,0,0,1-3.43359-.68359,6.71579,6.71579,0,0,1-2.78223-2.083l2.18066-1.85547a4.97989,4.97989,0,0,0,1.708,1.52979,4.76449,4.76449,0,0,0,2.39258.61865,5.38727,5.38727,0,0,0,1.123-.11426,3.18876,3.18876,0,0,0,.97656-.374,1.88956,1.88956,0,0,0,.96-1.75781,1.69179,1.69179,0,0,0-1.02539-1.59473,13.81209,13.81209,0,0,0-3.01074-.97656q-.78076-.19556-1.57812-.47168a5.25288,5.25288,0,0,1-1.44824-.76514,3.83088,3.83088,0,0,1-1.05859-1.2207,3.67153,3.67153,0,0,1-.40625-1.80615,4.27862,4.27862,0,0,1,.50391-2.13184,4.40761,4.40761,0,0,1,1.31836-1.46484,5.80726,5.80726,0,0,1,1.85547-.84619,8.34645,8.34645,0,0,1,2.14844-.27686,8.1842,8.1842,0,0,1,3.20605.65137,5.30568,5.30568,0,0,1,2.3916,1.8877Z"/><path class="c" d="M366.86768,432.68164q.06445.58594.09766,1.31836.03223.73169.03223,1.22021h.09766a4.49465,4.49465,0,0,1,.79785-1.15527,5.75945,5.75945,0,0,1,1.15527-.94385,5.69726,5.69726,0,0,1,1.43164-.63477,5.80248,5.80248,0,0,1,1.62793-.228,6.0095,6.0095,0,0,1,2.57129.50488,5.21418,5.21418,0,0,1,1.79,1.35059,5.47351,5.47351,0,0,1,1.05762,1.98535,8.46976,8.46976,0,0,1,.3418,2.44092v9.56934h-3.05957v-8.56006a10.49042,10.49042,0,0,0-.14648-1.79,4.31144,4.31144,0,0,0-.53711-1.49756,2.918,2.918,0,0,0-1.07422-1.0415,3.51241,3.51241,0,0,0-1.75781-.39062,3.70188,3.70188,0,0,0-2.97754,1.3833,5.57779,5.57779,0,0,0-1.15527,3.69434v8.20215h-3.05957V436.00146q0-.61816-.0332-1.59473-.03223-.97632-.09766-1.7251Z"/><path class="c" d="M392.25732,438.11719a3.06993,3.06993,0,0,0-1.042-2.55518,4.311,4.311,0,0,0-2.7666-.83008,6.06777,6.06777,0,0,0-2.457.50488,6.21455,6.21455,0,0,0-1.93652,1.28564l-1.62793-1.95312a8.23058,8.23058,0,0,1,2.7832-1.69238,9.94771,9.94771,0,0,1,3.53125-.61865,7.97962,7.97962,0,0,1,2.88086.47217,5.4667,5.4667,0,0,1,2.002,1.28564,5.26419,5.26419,0,0,1,1.1709,1.92041,7.07967,7.07967,0,0,1,.39063,2.376v6.7373q0,.78149.04883,1.64355a8.488,8.488,0,0,0,.17969,1.416h-2.7666a9.6163,9.6163,0,0,1-.26074-2.21338h-.09766a5.91784,5.91784,0,0,1-2.13184,1.92041,6.39633,6.39633,0,0,1-3.043.68359,7.9775,7.9775,0,0,1-1.9043-.24414,5.51827,5.51827,0,0,1-1.80664-.79736,4.5072,4.5072,0,0,1-1.35059-1.46484,4.35068,4.35068,0,0,1-.53711-2.24561,3.94756,3.94756,0,0,1,.94434-2.7832,5.9753,5.9753,0,0,1,2.47363-1.562,13.98171,13.98171,0,0,1,3.4502-.69971q1.91895-.1626,3.873-.16309Zm-.749,2.63623q-1.13965,0-2.35937.09766a10.93371,10.93371,0,0,0-2.21387.39063,4.187,4.187,0,0,0-1.64355.87891,1.99934,1.99934,0,0,0-.65039,1.562,2.16054,2.16054,0,0,0,.27637,1.13965,2.3013,2.3013,0,0,0,.73242.74854,2.93726,2.93726,0,0,0,1.00879.40674,5.625,5.625,0,0,0,1.13965.11377,4.21212,4.21212,0,0,0,3.30371-1.28564,4.66591,4.66591,0,0,0,1.15527-3.23828v-.814Z"/><path class="c" d="M403.02,439.38672h.09766l6.47754-6.70508h4.10059l-7.22559,6.99756,7.84375,8.43018H410.0835l-6.96582-8.00684H403.02v8.00684h-3.05957V423.50293H403.02Z"/><path class="c" d="M430.3374,440.26514v.521a4.22576,4.22576,0,0,1-.03223.52051H418.03467a4.55884,4.55884,0,0,0,.43945,1.82666,4.80583,4.80583,0,0,0,1.09082,1.48682,5.06271,5.06271,0,0,0,1.57813.98584,5.50891,5.50891,0,0,0,4.60547-.32812,5.51584,5.51584,0,0,0,1.79-1.66016l2.14844,1.7251a7.6846,7.6846,0,0,1-2.91309,2.415,9.34129,9.34129,0,0,1-6.98145.189,7.51515,7.51515,0,0,1-2.57129-1.644,7.61315,7.61315,0,0,1-1.69238-2.55469,8.60089,8.60089,0,0,1-.61914-3.31982,8.83967,8.83967,0,0,1,.60352-3.30371,7.55876,7.55876,0,0,1,1.67969-2.58789,7.69778,7.69778,0,0,1,2.54492-1.67578,8.728,8.728,0,0,1,6.24609-.04883,6.36994,6.36994,0,0,1,2.34863,1.59473,7.192,7.192,0,0,1,1.4834,2.52246A10.00314,10.00314,0,0,1,430.3374,440.26514Zm-3.124-1.23682a5.84182,5.84182,0,0,0-.30957-1.7085,3.91832,3.91832,0,0,0-.81348-1.3833,3.83208,3.83208,0,0,0-1.334-.92773,4.72606,4.72606,0,0,0-1.87207-.3418,4.9411,4.9411,0,0,0-1.83887.3418,4.77236,4.77236,0,0,0-1.49707.92773,4.8959,4.8959,0,0,0-1.042,1.3833,4.40286,4.40286,0,0,0-.47168,1.7085Z"/><path class="c" d="M359.99854,480.24609h-4.10059v8.01465a3.03619,3.03619,0,0,0,.52051,1.99561,2.08543,2.08543,0,0,0,1.66016.60059,5.08489,5.08489,0,0,0,.91113-.08984,3.72334,3.72334,0,0,0,.87891-.26855l.09766,2.50586a7.3985,7.3985,0,0,1-1.2207.30957,8.19285,8.19285,0,0,1-1.38379.11426,4.40534,4.40534,0,0,1-3.33594-1.20508,5.03062,5.03062,0,0,1-1.15527-3.6123v-8.36475h-2.96191v-2.50635h2.96191V473.313h3.02734v4.42676h4.10059Z"/><path class="c" d="M373.897,493.16748q-.06592-.58594-.09766-1.31836-.03369-.73242-.0332-1.2207h-.06445a5.03525,5.03525,0,0,1-1.96973,2.09961,5.69259,5.69259,0,0,1-3.0752.8623,6.27923,6.27923,0,0,1-2.58789-.48828,4.75758,4.75758,0,0,1-1.79-1.35059,5.76994,5.76994,0,0,1-1.042-2.002,8.46009,8.46009,0,0,1-.3418-2.44092v-9.56885h3.05957v8.52734a10.77317,10.77317,0,0,0,.14648,1.80664,4.33553,4.33553,0,0,0,.53711,1.51367,2.90164,2.90164,0,0,0,1.07422,1.041,3.51229,3.51229,0,0,0,1.75781.39063,3.69123,3.69123,0,0,0,2.99414-1.38281,5.62905,5.62905,0,0,0,1.13965-3.69434v-8.20215h3.05957v12.10742q0,.61963.03223,1.5957.03223.97559.09766,1.72461Z"/><path class="c" d="M381.5249,479.46484q-.03223-.97632-.09766-1.7251h2.89746q.06445.58594.09766,1.35059.03223.76538.03223,1.25342h.09766a5.33161,5.33161,0,0,1,1.9043-2.19727,4.98426,4.98426,0,0,1,2.81543-.83008,4.76636,4.76636,0,0,1,1.2041.13037l-.12988,2.83154a5.77281,5.77281,0,0,0-1.40039-.1626,4.24762,4.24762,0,0,0-1.91992.40674,3.914,3.914,0,0,0-1.35059,1.09033,4.61211,4.61211,0,0,0-.79785,1.57861,6.66058,6.66058,0,0,0-.25977,1.87158v8.10449h-3.05957V481.05957Q381.55811,480.44141,381.5249,479.46484Z"/><path class="c" d="M402.15771,480.24609h-4.10059v8.01465a3.03619,3.03619,0,0,0,.52051,1.99561,2.08543,2.08543,0,0,0,1.66016.60059,5.08489,5.08489,0,0,0,.91113-.08984,3.72334,3.72334,0,0,0,.87891-.26855l.09766,2.50586a7.3985,7.3985,0,0,1-1.2207.30957,8.19285,8.19285,0,0,1-1.38379.11426,4.40534,4.40534,0,0,1-3.33594-1.20508,5.03062,5.03062,0,0,1-1.15527-3.6123v-8.36475h-2.96191v-2.50635h2.96191V473.313h3.02734v4.42676h4.10059Z"/><path class="c" d="M408.26611,493.16748h-3.05957V468.561h3.05957Z"/><path class="c" d="M427.69678,485.32324v.521a4.22576,4.22576,0,0,1-.03223.52051H415.394a4.55884,4.55884,0,0,0,.43945,1.82666,4.80583,4.80583,0,0,0,1.09082,1.48682,5.04358,5.04358,0,0,0,1.57813.98535,5.50891,5.50891,0,0,0,4.60547-.32812,5.50933,5.50933,0,0,0,1.79-1.65967l2.14844,1.7251a7.68014,7.68014,0,0,1-2.91309,2.415,9.34418,9.34418,0,0,1-6.98145.18848,7.5068,7.5068,0,0,1-2.57129-1.64355,7.618,7.618,0,0,1-1.69238-2.55469,8.60088,8.60088,0,0,1-.61914-3.31982,8.83967,8.83967,0,0,1,.60352-3.30371,7.55875,7.55875,0,0,1,1.67969-2.58789,7.69777,7.69777,0,0,1,2.54492-1.67578,8.728,8.728,0,0,1,6.24609-.04883,6.36994,6.36994,0,0,1,2.34863,1.59473,7.192,7.192,0,0,1,1.4834,2.52246A10.00314,10.00314,0,0,1,427.69678,485.32324Zm-3.124-1.23682a5.84182,5.84182,0,0,0-.30957-1.7085,3.91832,3.91832,0,0,0-.81348-1.3833,3.83209,3.83209,0,0,0-1.334-.92773,4.72606,4.72606,0,0,0-1.87207-.3418,4.9411,4.9411,0,0,0-1.83887.3418,4.77236,4.77236,0,0,0-1.49707.92773,4.8959,4.8959,0,0,0-1.042,1.3833,4.40286,4.40286,0,0,0-.47168,1.7085Z"/><path class="c" d="M181.042,122.29932v2.44141h-2.96191V100.13428h3.05957v11.48926h.09766a6.46284,6.46284,0,0,1,2.17578-1.93652,6.56943,6.56943,0,0,1,3.31152-.79785,7.729,7.729,0,0,1,3.13281.61914,7.232,7.232,0,0,1,2.43555,1.72461,7.77266,7.77266,0,0,1,1.57422,2.58789,9.00772,9.00772,0,0,1,.55273,3.17285,9.14515,9.14515,0,0,1-.55273,3.19043,7.86783,7.86783,0,0,1-1.55859,2.60352,7.18518,7.18518,0,0,1-2.43457,1.74121,7.84166,7.84166,0,0,1-3.21484.63477,7.065,7.065,0,0,1-3.14941-.73242,5.91617,5.91617,0,0,1-2.40234-2.13184Zm10.25293-5.28906a6.71347,6.71347,0,0,0-.3252-2.07715,5.32137,5.32137,0,0,0-.97656-1.78418,4.67949,4.67949,0,0,0-1.61133-1.2334,5.16137,5.16137,0,0,0-2.22949-.45508,4.92218,4.92218,0,0,0-2.13184.45508,4.9958,4.9958,0,0,0-1.64355,1.2334,5.67555,5.67555,0,0,0-1.05762,1.78418,6.12286,6.12286,0,0,0,0,4.21973,5.48411,5.48411,0,0,0,1.05762,1.76855,5.10162,5.10162,0,0,0,1.64355,1.2168,4.92174,4.92174,0,0,0,2.13184.4541,4.99755,4.99755,0,0,0,2.22949-.4707,4.86838,4.86838,0,0,0,1.61133-1.249,5.31656,5.31656,0,0,0,.97656-1.78516A6.70892,6.70892,0,0,0,191.29492,117.01025Z"/><path class="c" d="M201.89551,103.74658a1.82677,1.82677,0,0,1-.59766,1.40039,2.03789,2.03789,0,0,1-1.43652.55273,1.95294,1.95294,0,0,1-1.4209-.56934,1.864,1.864,0,0,1-.58105-1.38379,1.90092,1.90092,0,0,1,.58105-1.415,1.95379,1.95379,0,0,1,1.4209-.57031,2.00755,2.00755,0,0,1,1.43652.57031A1.87588,1.87588,0,0,1,201.89551,103.74658Zm-.48828,20.99414h-3.05957V109.313h3.05957Z"/><path class="c" d="M206.31152,111.0376q-.03223-.97559-.09766-1.72461h2.89746q.06445.58594.09766,1.35059.03223.76465.03223,1.25293h.09766a5.33771,5.33771,0,0,1,1.9043-2.19727,4.988,4.988,0,0,1,2.81543-.83008,4.74189,4.74189,0,0,1,1.2041.13086l-.12988,2.83105a5.77323,5.77323,0,0,0-1.40039-.16211,4.25408,4.25408,0,0,0-1.91992.40625,3.90975,3.90975,0,0,0-1.35059,1.09082,4.60976,4.60976,0,0,0-.79785,1.57813,6.664,6.664,0,0,0-.25977,1.87207v8.10449h-3.05957v-12.1084Q206.34473,112.01416,206.31152,111.0376Z"/><path class="c" d="M230.21484,122.29932a5.68618,5.68618,0,0,1-2.39258,2.13184,7.19437,7.19437,0,0,1-3.17285.73242,7.87917,7.87917,0,0,1-3.22266-.63477,7.18964,7.18964,0,0,1-2.44043-1.74121,7.844,7.844,0,0,1-1.5625-2.60352,9.12322,9.12322,0,0,1-.55371-3.19043,8.98617,8.98617,0,0,1,.55371-3.17285,7.7501,7.7501,0,0,1,1.57813-2.58789,7.198,7.198,0,0,1,2.458-1.72461,7.87613,7.87613,0,0,1,3.15625-.61914,6.5357,6.5357,0,0,1,3.28809.79785,6.81981,6.81981,0,0,1,2.21289,1.93652h.06543V100.13428h3.05957v24.60645h-2.96191v-2.44141Zm-10.15527-5.28906a6.68094,6.68094,0,0,0,.32617,2.07715,5.28269,5.28269,0,0,0,.97656,1.78516,5.12512,5.12512,0,0,0,5.93945,1.26563,5.11219,5.11219,0,0,0,1.64355-1.2168,5.48411,5.48411,0,0,0,1.05762-1.76855,6.12286,6.12286,0,0,0,0-4.21973,5.67555,5.67555,0,0,0-1.05762-1.78418,5.0059,5.0059,0,0,0-1.64355-1.2334,4.92526,4.92526,0,0,0-2.13184-.45508,5.05245,5.05245,0,0,0-2.21289.45508,4.70081,4.70081,0,0,0-1.59473,1.2334,5.28742,5.28742,0,0,0-.97656,1.78418A6.68547,6.68547,0,0,0,220.05957,117.01025Z"/><path class="c" d="M151.44629,156.71436a4.76279,4.76279,0,0,1,1.8877-1.95312,5.64108,5.64108,0,0,1,2.99414-.81348,5.9961,5.9961,0,0,1,2.57129.50488,5.19284,5.19284,0,0,1,1.79,1.35059,5.47139,5.47139,0,0,1,1.05859,1.98535,8.46638,8.46638,0,0,1,.3418,2.44043v9.56934h-3.05957v-8.54785a10.54439,10.54439,0,0,0-.14648-1.79492,4.34605,4.34605,0,0,0-.53711-1.501,2.96843,2.96843,0,0,0-1.05762-1.04395,3.41961,3.41961,0,0,0-1.74219-.3916,3.74478,3.74478,0,0,0-2.99414,1.38672,5.54875,5.54875,0,0,0-1.17187,3.70313v8.18945h-3.05957V145.19189h3.05957v11.52246Z"/><path class="c" d="M176.499,159.80615a3.06892,3.06892,0,0,0-1.042-2.55469,4.3081,4.3081,0,0,0-2.7666-.83008,6.05966,6.05966,0,0,0-2.457.50488,6.2135,6.2135,0,0,0-1.93652,1.28516l-1.62793-1.95312a8.23832,8.23832,0,0,1,2.7832-1.69238,9.94751,9.94751,0,0,1,3.53125-.61816,7.98,7.98,0,0,1,2.88086.47168,5.47384,5.47384,0,0,1,2.002,1.28613,5.25816,5.25816,0,0,1,1.1709,1.91992,7.08377,7.08377,0,0,1,.39063,2.376v6.7373c0,.52051.0166,1.06934.04883,1.64355a8.49506,8.49506,0,0,0,.17969,1.416h-2.7666a9.61844,9.61844,0,0,1-.26074-2.21289h-.09766a5.92979,5.92979,0,0,1-2.13184,1.91992,6.3906,6.3906,0,0,1-3.043.68359,7.95273,7.95273,0,0,1-1.9043-.24414,5.52945,5.52945,0,0,1-1.80664-.79785,4.50375,4.50375,0,0,1-1.35059-1.46387,4.35377,4.35377,0,0,1-.53711-2.24609,3.94756,3.94756,0,0,1,.94434-2.7832,5.97451,5.97451,0,0,1,2.47363-1.56152,13.98117,13.98117,0,0,1,3.4502-.7002q1.91895-.1626,3.873-.16309Zm-.749,2.63672q-1.13965,0-2.35937.09766a10.93371,10.93371,0,0,0-2.21387.39063,4.187,4.187,0,0,0-1.64355.87891,1.999,1.999,0,0,0-.65039,1.56152,2.16054,2.16054,0,0,0,.27637,1.13965,2.29981,2.29981,0,0,0,.73242.748,2.94778,2.94778,0,0,0,1.00879.40723,5.625,5.625,0,0,0,1.13965.11426,4.2124,4.2124,0,0,0,3.30371-1.28613,4.66507,4.66507,0,0,0,1.15527-3.23828v-.81348Z"/><path class="c" d="M189.02832,154.81006a5.34161,5.34161,0,0,1,3.04395-.8623,5.5836,5.5836,0,0,1,2.81543.71582,4.80116,4.80116,0,0,1,1.96875,2.376,5.49258,5.49258,0,0,1,2.18066-2.29395,6.0674,6.0674,0,0,1,3.05957-.79785,5.9961,5.9961,0,0,1,2.57129.50488,5.202,5.202,0,0,1,1.79,1.35059,5.4548,5.4548,0,0,1,1.05762,1.98535,8.43281,8.43281,0,0,1,.3418,2.44043v9.56934h-3.05957v-8.55957a9.47407,9.47407,0,0,0-.16211-1.79,4.57687,4.57687,0,0,0-.55371-1.498,3.00136,3.00136,0,0,0-1.041-1.041,3.18686,3.18686,0,0,0-1.66016-.39062,3.47217,3.47217,0,0,0-1.79.43945,3.7193,3.7193,0,0,0-1.2207,1.13867,4.78823,4.78823,0,0,0-.68359,1.5791,7.59289,7.59289,0,0,0-.21191,1.79v8.332H194.415v-9.17871a7.83635,7.83635,0,0,0-.16211-1.65918,3.38989,3.38989,0,0,0-.55371-1.28613,2.74844,2.74844,0,0,0-1.00879-.8457,3.40374,3.40374,0,0,0-1.53027-.30957,3.48348,3.48348,0,0,0-2.81543,1.38281,5.69162,5.69162,0,0,0-1.12207,3.69434v8.20215h-3.05957V157.69092q0-.61816-.0332-1.59473-.03223-.97705-.09766-1.72559h2.89746q.06445.58594.09766,1.31836.03223.73242.03223,1.2207h.09766A5.21851,5.21851,0,0,1,189.02832,154.81006Z"/><path class="c" d="M221.1084,158.27686a4.00927,4.00927,0,0,0-1.46484-1.38379,4.208,4.208,0,0,0-2.11523-.53711,4.84456,4.84456,0,0,0-1.042.11426,3.06575,3.06575,0,0,0-.92773.3584,1.96531,1.96531,0,0,0-.65039.61816,1.66148,1.66148,0,0,0-.24414.92773,1.54334,1.54334,0,0,0,.87891,1.44824,10.80216,10.80216,0,0,0,2.63574.8623,16.49782,16.49782,0,0,1,2.05078.61816,6.43652,6.43652,0,0,1,1.64355.89551,3.87339,3.87339,0,0,1,1.09082,1.28516,3.76269,3.76269,0,0,1,.39063,1.75781,4.71815,4.71815,0,0,1-.52148,2.31055,4.50547,4.50547,0,0,1-1.38281,1.5459,5.66031,5.66031,0,0,1-1.96973.86328,9.95087,9.95087,0,0,1-2.27832.25977,9.01047,9.01047,0,0,1-3.43359-.68359,6.70749,6.70749,0,0,1-2.78223-2.083l2.18066-1.85449a4.98362,4.98362,0,0,0,1.708,1.5293,4.76909,4.76909,0,0,0,2.39258.61816,5.38775,5.38775,0,0,0,1.123-.11328,3.20276,3.20276,0,0,0,.97656-.375,1.88939,1.88939,0,0,0,.96-1.75684,1.69133,1.69133,0,0,0-1.02539-1.59473,13.78549,13.78549,0,0,0-3.01074-.97656q-.78076-.19629-1.57812-.47168a5.25418,5.25418,0,0,1-1.44824-.76562,3.82566,3.82566,0,0,1-1.05859-1.2207,3.66826,3.66826,0,0,1-.40625-1.80566,4.27862,4.27862,0,0,1,.50391-2.13184,4.40761,4.40761,0,0,1,1.31836-1.46484,5.79758,5.79758,0,0,1,1.85547-.84668,8.36752,8.36752,0,0,1,2.14844-.27637,8.1755,8.1755,0,0,1,3.20605.65137,5.29918,5.29918,0,0,1,2.3916,1.8877Z"/><path class="c" d="M235.43848,156.87744h-4.10059v8.01465a3.03556,3.03556,0,0,0,.52051,1.99512,2.08543,2.08543,0,0,0,1.66016.60059,5.0849,5.0849,0,0,0,.91113-.08984,3.72333,3.72333,0,0,0,.87891-.26855l.09766,2.50586a7.39851,7.39851,0,0,1-1.2207.30957,8.19285,8.19285,0,0,1-1.38379.11426,4.40534,4.40534,0,0,1-3.33594-1.20508,5.03062,5.03062,0,0,1-1.15527-3.6123v-8.36426h-2.96191v-2.50684h2.96191v-4.42676h3.02734v4.42676h4.10059Z"/><path class="c" d="M252.666,161.95459v.52051a4.21987,4.21987,0,0,1-.03223.52051H240.36328a4.56114,4.56114,0,0,0,.43945,1.82715,4.80949,4.80949,0,0,0,1.09082,1.48633,5.04358,5.04358,0,0,0,1.57813.98535,5.50891,5.50891,0,0,0,4.60547-.32812,5.51332,5.51332,0,0,0,1.79-1.65918l2.14844,1.72461a7.68013,7.68013,0,0,1-2.91309,2.415,9.34418,9.34418,0,0,1-6.98145.18848,7.5068,7.5068,0,0,1-2.57129-1.64355,7.618,7.618,0,0,1-1.69238-2.55469,8.60014,8.60014,0,0,1-.61914-3.31934,8.83967,8.83967,0,0,1,.60352-3.30371,7.54944,7.54944,0,0,1,1.67969-2.58789,7.69778,7.69778,0,0,1,2.54492-1.67578,8.728,8.728,0,0,1,6.24609-.04883,6.36994,6.36994,0,0,1,2.34863,1.59473,7.18765,7.18765,0,0,1,1.4834,2.52246A9.99907,9.99907,0,0,1,252.666,161.95459Zm-3.124-1.2373a5.83853,5.83853,0,0,0-.30957-1.708,3.91613,3.91613,0,0,0-.81348-1.38379,3.83854,3.83854,0,0,0-1.334-.92773,4.7347,4.7347,0,0,0-1.87207-.3418,4.9509,4.9509,0,0,0-1.83887.3418,4.78127,4.78127,0,0,0-1.49707.92773,4.89129,4.89129,0,0,0-1.042,1.38379,4.40054,4.40054,0,0,0-.47168,1.708Z"/><path class="c" d="M256.52246,156.09619q-.03223-.97705-.09766-1.72559h2.89746c.043.39063.0752.8418.09766,1.35059.02148.51074.03223.92773.03223,1.25391h.09766a5.32552,5.32552,0,0,1,1.9043-2.19727,4.98048,4.98048,0,0,1,2.81543-.83008,4.7911,4.7911,0,0,1,1.2041.12988l-.12988,2.832a5.7724,5.7724,0,0,0-1.40039-.16309,4.24119,4.24119,0,0,0-1.91992.40723,3.91834,3.91834,0,0,0-1.35059,1.08984,4.61447,4.61447,0,0,0-.79785,1.5791,6.65715,6.65715,0,0,0-.25977,1.87109v8.10449h-3.05957V157.69092Q256.55566,157.07275,256.52246,156.09619Z"/><path class="c" d="M500.76416,315.01465a3.74279,3.74279,0,0,0-1.46484-1.25293,4.47254,4.47254,0,0,0-2.083-.50488,4.77607,4.77607,0,0,0-2.13184.45605,4.86575,4.86575,0,0,0-1.57812,1.22021,5.34981,5.34981,0,0,0-.99316,1.77393,6.71906,6.71906,0,0,0,0,4.23145,5.34013,5.34013,0,0,0,.99316,1.77393,4.79648,4.79648,0,0,0,1.59473,1.22021,5.24721,5.24721,0,0,0,4.2793,0,4.35088,4.35088,0,0,0,1.5791-1.23682l2.05078,1.85547a6.63735,6.63735,0,0,1-2.44141,1.77393,8.27891,8.27891,0,0,1-3.32031.63477,9.07842,9.07842,0,0,1-3.30371-.58594,7.84365,7.84365,0,0,1-2.62012-1.644,7.58658,7.58658,0,0,1-1.74121-2.55469,8.5151,8.5151,0,0,1-.63477-3.35254,8.60263,8.60263,0,0,1,.61914-3.31982,7.557,7.557,0,0,1,1.72461-2.57129,7.70582,7.70582,0,0,1,2.62012-1.66016,8.98336,8.98336,0,0,1,3.27148-.58594,8.58165,8.58165,0,0,1,3.23828.65137,5.91431,5.91431,0,0,1,2.55469,1.8877Z"/><path class="c" d="M515.94385,316.54443a3.06993,3.06993,0,0,0-1.042-2.55518,4.311,4.311,0,0,0-2.7666-.83008,6.06777,6.06777,0,0,0-2.457.50488,6.21455,6.21455,0,0,0-1.93652,1.28564l-1.62793-1.95312a8.23058,8.23058,0,0,1,2.7832-1.69238,9.94771,9.94771,0,0,1,3.53125-.61865,7.97962,7.97962,0,0,1,2.88086.47217,5.4667,5.4667,0,0,1,2.002,1.28564,5.26419,5.26419,0,0,1,1.1709,1.92041,7.07966,7.07966,0,0,1,.39063,2.376v6.7373q0,.78149.04883,1.64355a8.48805,8.48805,0,0,0,.17969,1.416h-2.7666a9.6163,9.6163,0,0,1-.26074-2.21338h-.09766a5.91784,5.91784,0,0,1-2.13184,1.92041,6.39634,6.39634,0,0,1-3.043.68359,7.9775,7.9775,0,0,1-1.9043-.24414,5.51827,5.51827,0,0,1-1.80664-.79736,4.5072,4.5072,0,0,1-1.35059-1.46484,4.35069,4.35069,0,0,1-.53711-2.24561,3.94756,3.94756,0,0,1,.94434-2.7832,5.9753,5.9753,0,0,1,2.47363-1.562,13.98171,13.98171,0,0,1,3.4502-.69971q1.91895-.1626,3.873-.16309Zm-.749,2.63623q-1.13965,0-2.35937.09766a10.93371,10.93371,0,0,0-2.21387.39063,4.187,4.187,0,0,0-1.64355.87891,1.99934,1.99934,0,0,0-.65039,1.562,2.16054,2.16054,0,0,0,.27637,1.13965,2.3013,2.3013,0,0,0,.73242.74854,2.93726,2.93726,0,0,0,1.00879.40674,5.625,5.625,0,0,0,1.13965.11377,4.21212,4.21212,0,0,0,3.30371-1.28564,4.66591,4.66591,0,0,0,1.15527-3.23828v-.814Z"/><path class="c" d="M531.38818,313.61523H527.2876v8.01465a3.03529,3.03529,0,0,0,.52051,1.99561,2.08527,2.08527,0,0,0,1.66016.6001,5.03761,5.03761,0,0,0,.91113-.08936,3.70075,3.70075,0,0,0,.87891-.26855l.09766,2.50635a7.4983,7.4983,0,0,1-1.2207.30908,8.2442,8.2442,0,0,1-1.38379.11377,4.40861,4.40861,0,0,1-3.33594-1.2041,5.0343,5.0343,0,0,1-1.15527-3.61279v-8.36475h-2.96191v-2.50635h2.96191v-4.42676h3.02734v4.42676h4.10059Z"/><path class="c" d="M555.53467,134.34814h-3.58008V147.269H548.895v-12.9209h-3.05957v-2.50684H548.895v-3.22168a9.69618,9.69618,0,0,1,.30957-2.52246,5.19023,5.19023,0,0,1,1.00879-2.002,4.84619,4.84619,0,0,1,1.79-1.335,6.47523,6.47523,0,0,1,2.65234-.48828,7.19877,7.19877,0,0,1,1.9209.22852l-.3584,2.63574q-.35889-.09668-.71582-.16211a4.628,4.628,0,0,0-.81348-.06543,2.82367,2.82367,0,0,0-1.416.30957,2.1723,2.1723,0,0,0-.83008.83008,3.41048,3.41048,0,0,0-.39062,1.1875,9.50875,9.50875,0,0,0-.09766,1.38379v3.22168h3.58008Zm6.5752-8.07227a1.8266,1.8266,0,0,1-.59766,1.39941,2.04108,2.04108,0,0,1-1.4375.55371,1.95314,1.95314,0,0,1-1.41992-.57031,1.86033,1.86033,0,0,1-.58105-1.38281,1.90157,1.90157,0,0,1,.58105-1.416,1.9562,1.9562,0,0,1,1.41992-.56934,2.013,2.013,0,0,1,1.4375.56934A1.88,1.88,0,0,1,562.10986,126.27588Zm-.48828,20.99316H558.562V131.84131h3.05957Z"/><path class="c" d="M575.07275,135.74756a4.00927,4.00927,0,0,0-1.46484-1.38379,4.208,4.208,0,0,0-2.11523-.53711,4.84455,4.84455,0,0,0-1.042.11426,3.06575,3.06575,0,0,0-.92773.3584,1.9653,1.9653,0,0,0-.65039.61816,1.66148,1.66148,0,0,0-.24414.92773,1.54334,1.54334,0,0,0,.87891,1.44824,10.80215,10.80215,0,0,0,2.63574.8623,16.49783,16.49783,0,0,1,2.05078.61816,6.43652,6.43652,0,0,1,1.64355.89551,3.87339,3.87339,0,0,1,1.09082,1.28516,3.76269,3.76269,0,0,1,.39063,1.75781,4.72472,4.72472,0,0,1-.52148,2.31152,4.52328,4.52328,0,0,1-1.38281,1.5459,5.67686,5.67686,0,0,1-1.96973.8623,9.95126,9.95126,0,0,1-2.27832.26074,9.029,9.029,0,0,1-3.43359-.68359,6.7241,6.7241,0,0,1-2.78223-2.083l2.18066-1.85547a4.98362,4.98362,0,0,0,1.708,1.5293,4.75989,4.75989,0,0,0,2.39258.61914,5.38728,5.38728,0,0,0,1.123-.11426,3.20126,3.20126,0,0,0,.97656-.374,1.88956,1.88956,0,0,0,.96-1.75781,1.69133,1.69133,0,0,0-1.02539-1.59473,13.78548,13.78548,0,0,0-3.01074-.97656q-.78076-.19629-1.57812-.47168a5.25417,5.25417,0,0,1-1.44824-.76562,3.82566,3.82566,0,0,1-1.05859-1.2207,3.66826,3.66826,0,0,1-.40625-1.80566,4.27862,4.27862,0,0,1,.50391-2.13184,4.40761,4.40761,0,0,1,1.31836-1.46484,5.79759,5.79759,0,0,1,1.85547-.84668,8.36752,8.36752,0,0,1,2.14844-.27637,8.1755,8.1755,0,0,1,3.20605.65137,5.29918,5.29918,0,0,1,2.3916,1.8877Z"/><path class="c" d="M584.18311,134.18506a4.76279,4.76279,0,0,1,1.8877-1.95312,5.64108,5.64108,0,0,1,2.99414-.81348,5.9961,5.9961,0,0,1,2.57129.50488,5.19284,5.19284,0,0,1,1.79,1.35059,5.47139,5.47139,0,0,1,1.05859,1.98535,8.46638,8.46638,0,0,1,.3418,2.44043V147.269h-3.05957v-8.54785a10.54439,10.54439,0,0,0-.14648-1.79492,4.34605,4.34605,0,0,0-.53711-1.501,2.96843,2.96843,0,0,0-1.05762-1.04395,3.41961,3.41961,0,0,0-1.74219-.3916,3.74478,3.74478,0,0,0-2.99414,1.38672,5.54875,5.54875,0,0,0-1.17187,3.70313V147.269h-3.05957V122.6626h3.05957v11.52246Z"/><path class="c" d="M693.57666,55.61963A7.60662,7.60662,0,0,0,690.981,53.354a7.93259,7.93259,0,0,0-3.82812-.85791,8.19268,8.19268,0,0,0-2.332.35156,6.76973,6.76973,0,0,0-2.15527,1.07813A5.54928,5.54928,0,0,0,681.103,55.752a5.39186,5.39186,0,0,0-.59375,2.5957,4.80153,4.80153,0,0,0,.56934,2.46436,5.42018,5.42018,0,0,0,1.51465,1.6499,8.75122,8.75122,0,0,0,2.15039,1.12207q1.20557.44019,2.52246.87988,1.62451.52808,3.26855,1.144a11.75561,11.75561,0,0,1,2.96289,1.606,7.77957,7.77957,0,0,1,2.14941,2.50781,7.94029,7.94029,0,0,1,.834,3.8501,8.55058,8.55058,0,0,1-.88965,4.02588,8.43477,8.43477,0,0,1-2.30957,2.79443A9.601,9.601,0,0,1,690.03467,82.02a13.15877,13.15877,0,0,1-3.67383.52783,14.12569,14.12569,0,0,1-2.81543-.28613,12.76869,12.76869,0,0,1-2.68457-.85791,10.9343,10.9343,0,0,1-2.376-1.45215,10.50738,10.50738,0,0,1-1.93555-2.02393l2.72754-2.02393a8.35146,8.35146,0,0,0,2.83789,2.79395,8.02843,8.02843,0,0,0,4.29,1.12207,8.29707,8.29707,0,0,0,2.41992-.374,6.7977,6.7977,0,0,0,2.22266-1.144,6.33271,6.33271,0,0,0,1.62793-1.89209,5.87306,5.87306,0,0,0,0-5.32373,5.683,5.683,0,0,0-1.69434-1.8042,10.39974,10.39974,0,0,0-2.41992-1.21q-1.36377-.4834-2.86035-.96777-1.53955-.48413-3.03516-1.1001a10.26868,10.26868,0,0,1-2.68457-1.606,7.50977,7.50977,0,0,1-1.91406-2.44189,8.93,8.93,0,0,1,.17578-7.436,8.16955,8.16955,0,0,1,2.35449-2.68408,9.85955,9.85955,0,0,1,3.21191-1.54,13.08035,13.08035,0,0,1,3.47559-.48389,11.99209,11.99209,0,0,1,5.41211,1.12207,9.29615,9.29615,0,0,1,3.38867,2.66162Z"/><path class="c" d="M721.28857,70.84375v.66016a7.047,7.047,0,0,1-.04395.748H704.17236a8.02008,8.02008,0,0,0,.61621,2.90381,7.3156,7.3156,0,0,0,1.584,2.376,7.62688,7.62688,0,0,0,2.376,1.606,7.86377,7.86377,0,0,0,6.97363-.48389,8.05623,8.05623,0,0,0,2.57422-2.48584l2.24414,1.75977a11.15772,11.15772,0,0,1-4.07031,3.34424,11.38781,11.38781,0,0,1-4.77344,1.01172,10.952,10.952,0,0,1-4.24609-.814,9.94122,9.94122,0,0,1-3.36621-2.26562,10.71523,10.71523,0,0,1-2.22168-3.43213,11.22507,11.22507,0,0,1-.81445-4.312,11.49841,11.49841,0,0,1,.792-4.312,10.43244,10.43244,0,0,1,2.2002-3.43213,10.12529,10.12529,0,0,1,3.2998-2.26611,10.24274,10.24274,0,0,1,4.0918-.814,10.50811,10.50811,0,0,1,4.26855.814,8.82388,8.82388,0,0,1,3.08008,2.2002,9.474,9.474,0,0,1,1.87012,3.23389A12.06687,12.06687,0,0,1,721.28857,70.84375Zm-3.03613-.96777a7.42608,7.42608,0,0,0-1.87012-4.81836,6.34626,6.34626,0,0,0-4.9502-1.91357,6.93386,6.93386,0,0,0-2.77148.5498,7.326,7.326,0,0,0-2.24414,1.49609,7.43452,7.43452,0,0,0-1.54,2.15576,6.94542,6.94542,0,0,0-.66016,2.53027Z"/><path class="c" d="M736.6001,63.67188H730.7915V75.68408a6.79486,6.79486,0,0,0,.2207,1.8916,2.67207,2.67207,0,0,0,.6377,1.166,2.167,2.167,0,0,0,.99023.57227,4.70557,4.70557,0,0,0,1.23145.15381,5.21521,5.21521,0,0,0,1.29883-.17578,6.55722,6.55722,0,0,0,1.29785-.48437l.13184,2.59619a8.87345,8.87345,0,0,1-1.65039.46191,10.60794,10.60794,0,0,1-1.87012.1543,7.61117,7.61117,0,0,1-1.75977-.22021,4.444,4.444,0,0,1-1.71582-.83594,4.56405,4.56405,0,0,1-1.29785-1.67187,6.44891,6.44891,0,0,1-.50586-2.772V63.67188h-4.26855V61.16406h4.26855V55.356h2.99121v5.80811h5.80859Z"/><path class="c" d="M752.439,50.604h9.28418a17.55536,17.55536,0,0,1,3.56445.374,9.69931,9.69931,0,0,1,3.2334,1.27588,7.04094,7.04094,0,0,1,2.332,2.44189,7.57365,7.57365,0,0,1,.90234,3.87207,6.53852,6.53852,0,0,1-1.50488,4.29,7.05861,7.05861,0,0,1-4.02441,2.39795v.08789a8.217,8.217,0,0,1,5.02734,2.354,7.35217,7.35217,0,0,1,1.998,5.43408,7.638,7.638,0,0,1-3.11816,6.27,11.0665,11.0665,0,0,1-3.64453,1.73779,17.51392,17.51392,0,0,1-4.8291.61621H752.439Zm3.168,13.63965h6.37988a10.45227,10.45227,0,0,0,2.31055-.26367,6.42424,6.42424,0,0,0,2.13379-.90234,4.83146,4.83146,0,0,0,1.5625-1.69385,5.23116,5.23116,0,0,0,.59375-2.5957,5.013,5.013,0,0,0-.59375-2.53027,4.93617,4.93617,0,0,0-1.60645-1.69385,6.91475,6.91475,0,0,0-2.376-.94629,14.15339,14.15339,0,0,0-2.9043-.28564h-5.5Zm0,14.78418h5.89648a15.80474,15.80474,0,0,0,3.27734-.33008,8.40617,8.40617,0,0,0,2.72852-1.05566A5.643,5.643,0,0,0,769.37939,75.75a6.0293,6.0293,0,0,0-1.38574-7.39209,9.94179,9.94179,0,0,0-5.918-1.51807h-6.46875Z"/><path class="c" d="M19.22754,55.61963a7.60662,7.60662,0,0,0-2.5957-2.26562,7.93259,7.93259,0,0,0-3.82812-.85791,8.19268,8.19268,0,0,0-2.332.35156,6.76972,6.76972,0,0,0-2.15527,1.07813A5.54928,5.54928,0,0,0,6.75391,55.752a5.39186,5.39186,0,0,0-.59375,2.5957A4.80153,4.80153,0,0,0,6.72949,60.812a5.42018,5.42018,0,0,0,1.51465,1.6499A8.75122,8.75122,0,0,0,10.39453,63.584q1.20557.44019,2.52246.87988,1.62451.52808,3.26855,1.144a11.75561,11.75561,0,0,1,2.96289,1.606,7.77957,7.77957,0,0,1,2.14941,2.50781,7.94029,7.94029,0,0,1,.834,3.8501,8.55058,8.55058,0,0,1-.88965,4.02588,8.43477,8.43477,0,0,1-2.30957,2.79443A9.601,9.601,0,0,1,15.68555,82.02a13.15877,13.15877,0,0,1-3.67383.52783,14.12569,14.12569,0,0,1-2.81543-.28613,12.76869,12.76869,0,0,1-2.68457-.85791,10.93431,10.93431,0,0,1-2.376-1.45215A10.50738,10.50738,0,0,1,2.2002,77.92773l2.72754-2.02393a8.35146,8.35146,0,0,0,2.83789,2.79395,8.02843,8.02843,0,0,0,4.29,1.12207,8.29708,8.29708,0,0,0,2.41992-.374,6.7977,6.7977,0,0,0,2.22266-1.144,6.33271,6.33271,0,0,0,1.62793-1.89209,5.87306,5.87306,0,0,0,0-5.32373,5.683,5.683,0,0,0-1.69434-1.8042,10.39974,10.39974,0,0,0-2.41992-1.21q-1.36377-.4834-2.86035-.96777-1.53955-.48413-3.03516-1.1001a10.26867,10.26867,0,0,1-2.68457-1.606,7.50977,7.50977,0,0,1-1.91406-2.44189,8.93,8.93,0,0,1,.17578-7.436A8.16955,8.16955,0,0,1,6.248,51.83594,9.85955,9.85955,0,0,1,9.46,50.2959a13.08035,13.08035,0,0,1,3.47559-.48389,11.99209,11.99209,0,0,1,5.41211,1.12207,9.29615,9.29615,0,0,1,3.38867,2.66162Z"/><path class="c" d="M46.93945,70.84375v.66016a7.047,7.047,0,0,1-.04395.748H29.82324a8.02008,8.02008,0,0,0,.61621,2.90381,7.3156,7.3156,0,0,0,1.584,2.376,7.62688,7.62688,0,0,0,2.376,1.606,7.86377,7.86377,0,0,0,6.97363-.48389A8.05623,8.05623,0,0,0,43.94727,76.168l2.24414,1.75977A11.15772,11.15772,0,0,1,42.12109,81.272a11.38781,11.38781,0,0,1-4.77344,1.01172,10.952,10.952,0,0,1-4.24609-.814,9.94122,9.94122,0,0,1-3.36621-2.26562A10.71523,10.71523,0,0,1,27.51367,75.772a11.22507,11.22507,0,0,1-.81445-4.312,11.49841,11.49841,0,0,1,.792-4.312,10.43244,10.43244,0,0,1,2.2002-3.43213,10.12529,10.12529,0,0,1,3.2998-2.26611,10.24274,10.24274,0,0,1,4.0918-.814,10.50811,10.50811,0,0,1,4.26855.814,8.82388,8.82388,0,0,1,3.08008,2.2002,9.474,9.474,0,0,1,1.87012,3.23389A12.06687,12.06687,0,0,1,46.93945,70.84375ZM43.90332,69.876a7.42608,7.42608,0,0,0-1.87012-4.81836A6.34626,6.34626,0,0,0,37.083,63.144a6.93386,6.93386,0,0,0-2.77148.5498,7.326,7.326,0,0,0-2.24414,1.49609,7.43452,7.43452,0,0,0-1.54,2.15576,6.94542,6.94542,0,0,0-.66016,2.53027Z"/><path class="c" d="M62.251,63.67188H56.44238V75.68408a6.79486,6.79486,0,0,0,.2207,1.8916,2.67207,2.67207,0,0,0,.6377,1.166,2.167,2.167,0,0,0,.99023.57227,4.70557,4.70557,0,0,0,1.23145.15381,5.21521,5.21521,0,0,0,1.29883-.17578,6.55722,6.55722,0,0,0,1.29785-.48437l.13184,2.59619a8.87345,8.87345,0,0,1-1.65039.46191,10.60794,10.60794,0,0,1-1.87012.1543,7.61117,7.61117,0,0,1-1.75977-.22021,4.444,4.444,0,0,1-1.71582-.83594A4.56405,4.56405,0,0,1,53.957,79.292a6.4489,6.4489,0,0,1-.50586-2.772V63.67188H49.18262V61.16406h4.26855V55.356h2.99121v5.80811H62.251Z"/><path class="c" d="M77.87012,81.75586H74.39453L87.8584,50.604h3.08008l13.376,31.15186h-3.52051L97.3623,73.57178H81.25781ZM82.44629,70.668H96.17383L89.31055,54.124Z"/><path class="c" d="M355.96289,574.02539a7.60663,7.60663,0,0,0-2.5957-2.26562,7.93259,7.93259,0,0,0-3.82812-.85791,8.19268,8.19268,0,0,0-2.332.35156,6.76972,6.76972,0,0,0-2.15527,1.07813,5.54928,5.54928,0,0,0-1.5625,1.82617,5.39186,5.39186,0,0,0-.59375,2.5957,4.80153,4.80153,0,0,0,.56934,2.46436,5.42018,5.42018,0,0,0,1.51465,1.6499,8.75122,8.75122,0,0,0,2.15039,1.12207q1.20557.44019,2.52246.87988,1.62451.52808,3.26855,1.144a11.75561,11.75561,0,0,1,2.96289,1.606,7.77957,7.77957,0,0,1,2.14941,2.50781,7.94029,7.94029,0,0,1,.834,3.8501,8.55058,8.55058,0,0,1-.88965,4.02588,8.43478,8.43478,0,0,1-2.30957,2.79443,9.601,9.601,0,0,1-3.24707,1.62793,13.15877,13.15877,0,0,1-3.67383.52783,14.12569,14.12569,0,0,1-2.81543-.28613,12.76869,12.76869,0,0,1-2.68457-.85791,10.93431,10.93431,0,0,1-2.376-1.45215,10.50738,10.50738,0,0,1-1.93555-2.02393l2.72754-2.02393a8.35146,8.35146,0,0,0,2.83789,2.79395,8.02843,8.02843,0,0,0,4.29,1.12207,8.29708,8.29708,0,0,0,2.41992-.374,6.7977,6.7977,0,0,0,2.22266-1.144,6.3327,6.3327,0,0,0,1.62793-1.89209,5.87306,5.87306,0,0,0,0-5.32373,5.683,5.683,0,0,0-1.69434-1.8042,10.39974,10.39974,0,0,0-2.41992-1.21q-1.36377-.4834-2.86035-.96777-1.53955-.48413-3.03516-1.1001a10.26868,10.26868,0,0,1-2.68457-1.606,7.50977,7.50977,0,0,1-1.91406-2.44189,8.93,8.93,0,0,1,.17578-7.436,8.16956,8.16956,0,0,1,2.35449-2.68408,9.85955,9.85955,0,0,1,3.21191-1.54,13.08035,13.08035,0,0,1,3.47559-.48389,11.99209,11.99209,0,0,1,5.41211,1.12207,9.29615,9.29615,0,0,1,3.38867,2.66162Z"/><path class="c" d="M383.6748,589.24951v.66016a7.047,7.047,0,0,1-.04395.748H366.55859a8.02007,8.02007,0,0,0,.61621,2.90381,7.3156,7.3156,0,0,0,1.584,2.376,7.62688,7.62688,0,0,0,2.376,1.606,7.86377,7.86377,0,0,0,6.97363-.48389,8.05623,8.05623,0,0,0,2.57422-2.48584l2.24414,1.75977a11.15772,11.15772,0,0,1-4.07031,3.34424,11.38781,11.38781,0,0,1-4.77344,1.01172,10.952,10.952,0,0,1-4.24609-.814,9.94122,9.94122,0,0,1-3.36621-2.26562,10.71523,10.71523,0,0,1-2.22168-3.43213,11.22507,11.22507,0,0,1-.81445-4.312,11.49841,11.49841,0,0,1,.792-4.312,10.43244,10.43244,0,0,1,2.2002-3.43213,10.12529,10.12529,0,0,1,3.2998-2.26611,10.24274,10.24274,0,0,1,4.0918-.814,10.50811,10.50811,0,0,1,4.26855.814,8.82388,8.82388,0,0,1,3.08008,2.2002,9.474,9.474,0,0,1,1.87012,3.23389A12.06687,12.06687,0,0,1,383.6748,589.24951Zm-3.03613-.96777a7.42608,7.42608,0,0,0-1.87012-4.81836,6.34626,6.34626,0,0,0-4.9502-1.91357,6.93386,6.93386,0,0,0-2.77148.5498,7.326,7.326,0,0,0-2.24414,1.49609,7.43452,7.43452,0,0,0-1.54,2.15576,6.94542,6.94542,0,0,0-.66016,2.53027Z"/><path class="c" d="M398.98633,582.07764h-5.80859v12.01221a6.79486,6.79486,0,0,0,.2207,1.8916,2.67207,2.67207,0,0,0,.6377,1.166,2.167,2.167,0,0,0,.99023.57227,4.70558,4.70558,0,0,0,1.23145.15381,5.21521,5.21521,0,0,0,1.29883-.17578,6.55722,6.55722,0,0,0,1.29785-.48437l.13184,2.59619a8.87346,8.87346,0,0,1-1.65039.46191,10.60794,10.60794,0,0,1-1.87012.1543,7.61117,7.61117,0,0,1-1.75977-.22021,4.444,4.444,0,0,1-1.71582-.83594,4.56405,4.56405,0,0,1-1.29785-1.67187,6.44891,6.44891,0,0,1-.50586-2.772V582.07764H385.918v-2.50781h4.26855v-5.80811h2.99121v5.80811h5.80859Z"/><path class="c" d="M441.0498,595.10156a13.037,13.037,0,0,1-1.91406,2.24609,12.47645,12.47645,0,0,1-2.59668,1.86328,14.47146,14.47146,0,0,1-3.25586,1.27393,15.29514,15.29514,0,0,1-3.89355.46875,16.94055,16.94055,0,0,1-6.51172-1.23193,15.211,15.211,0,0,1-8.51465-8.58008,17.32909,17.32909,0,0,1-1.21-6.55615,17.038,17.038,0,0,1,1.23242-6.55566,15.46487,15.46487,0,0,1,8.55762-8.58008,16.66959,16.66959,0,0,1,6.44629-1.23193,16.01779,16.01779,0,0,1,6.46777,1.36328,13.18232,13.18232,0,0,1,2.63965,1.55615,9.14407,9.14407,0,0,1,1.98047,2.05225l-2.63965,1.936a7.92361,7.92361,0,0,0-1.29883-1.49609,8.87318,8.87318,0,0,0-1.91406-1.31982,12.012,12.012,0,0,0-2.39746-.92383,10.65413,10.65413,0,0,0-2.79395-.35205,12.92852,12.92852,0,0,0-5.43457,1.09668,12.22151,12.22151,0,0,0-4.06934,2.96,12.90722,12.90722,0,0,0-2.55176,4.32031,15.19918,15.19918,0,0,0-.88086,5.1748,14.89056,14.89056,0,0,0,.90234,5.17578,13.19417,13.19417,0,0,0,2.57422,4.31934A12.20255,12.20255,0,0,0,424.043,597.041a12.8111,12.8111,0,0,0,5.39063,1.09668,12.1913,12.1913,0,0,0,5.10352-1.1001,9.67621,9.67621,0,0,0,4.04883-3.52Z"/><path class="c" d="M374.23438,260.64844a5.68941,5.68941,0,0,1-2.39258,2.13184,7.19437,7.19437,0,0,1-3.17285.73242,7.87917,7.87917,0,0,1-3.22266-.63477,7.19751,7.19751,0,0,1-2.44043-1.7417,7.844,7.844,0,0,1-1.5625-2.60352,9.12246,9.12246,0,0,1-.55371-3.18994,8.99083,8.99083,0,0,1,.55371-3.17334,7.74791,7.74791,0,0,1,1.57813-2.5874,7.20594,7.20594,0,0,1,2.458-1.7251,7.876,7.876,0,0,1,3.15625-.61865,6.53067,6.53067,0,0,1,3.28809.79785,6.80845,6.80845,0,0,1,2.21289,1.93652h.06543V238.48291h3.05957v24.60645H374.2998v-2.44092Zm-10.15527-5.28906a6.67789,6.67789,0,0,0,.32617,2.07666,5.27807,5.27807,0,0,0,.97656,1.78516,5.12286,5.12286,0,0,0,5.93945,1.26563,5.11219,5.11219,0,0,0,1.64355-1.2168,5.47372,5.47372,0,0,0,1.05762-1.76855,6.12149,6.12149,0,0,0,0-4.21924,5.67243,5.67243,0,0,0-1.05762-1.78467,5.01128,5.01128,0,0,0-1.64355-1.23291,4.91824,4.91824,0,0,0-2.13184-.45508,5.04556,5.04556,0,0,0-2.21289.45508,4.70558,4.70558,0,0,0-1.59473,1.23291,5.285,5.285,0,0,0-.97656,1.78467A6.6832,6.6832,0,0,0,364.0791,255.35938Z"/><path class="c" d="M397.87793,255.34277a8.342,8.342,0,0,1-.63477,3.2876,7.81519,7.81519,0,0,1-1.75781,2.5874,7.91765,7.91765,0,0,1-2.65234,1.69238,9.27023,9.27023,0,0,1-6.5752,0,7.73532,7.73532,0,0,1-2.63672-1.69238,7.9522,7.9522,0,0,1-1.74121-2.5874,8.342,8.342,0,0,1-.63477-3.2876,8.2276,8.2276,0,0,1,.63477-3.271,7.69934,7.69934,0,0,1,4.37793-4.231,9.27023,9.27023,0,0,1,6.5752,0,8.0715,8.0715,0,0,1,2.65234,1.67578,7.68991,7.68991,0,0,1,1.75781,2.55518A8.2276,8.2276,0,0,1,397.87793,255.34277Zm-3.19043.0166a6.5,6.5,0,0,0-.34277-2.10986,5.33123,5.33123,0,0,0-.99512-1.76807,4.781,4.781,0,0,0-1.61621-1.2168,5.56515,5.56515,0,0,0-4.4082,0,4.76193,4.76193,0,0,0-1.61621,1.2168,5.3334,5.3334,0,0,0-.99609,1.76807,6.66327,6.66327,0,0,0,0,4.21924,5.51947,5.51947,0,0,0,.99609,1.78516,4.67516,4.67516,0,0,0,1.61621,1.23291,5.57064,5.57064,0,0,0,4.4082,0,4.69342,4.69342,0,0,0,1.61621-1.23291,5.5172,5.5172,0,0,0,.99512-1.78516A6.49274,6.49274,0,0,0,394.6875,255.35938Z"/><path class="c" d="M403.08105,265.72559a7.35887,7.35887,0,0,0,2.52246,1.82275,7.47837,7.47837,0,0,0,3.1084.68359,6.63044,6.63044,0,0,0,2.57129-.43945,4.30638,4.30638,0,0,0,1.67578-1.2041,4.656,4.656,0,0,0,.91113-1.80664,8.72172,8.72172,0,0,0,.27734-2.24561v-1.98535H414.082a5.428,5.428,0,0,1-2.31055,1.98535,7.30275,7.30275,0,0,1-3.125.68359,8.07808,8.07808,0,0,1-3.20605-.61865,7.19364,7.19364,0,0,1-2.457-1.69238,7.60483,7.60483,0,0,1-1.5625-2.52246,8.63069,8.63069,0,0,1-.55371-3.1084,8.76261,8.76261,0,0,1,.55371-3.12451,7.75783,7.75783,0,0,1,1.5625-2.55518,7.32216,7.32216,0,0,1,2.44141-1.7251,7.78877,7.78877,0,0,1,3.18945-.63477,7.33523,7.33523,0,0,1,3.17285.71631,5.46131,5.46131,0,0,1,2.39258,2.18066h.06543v-2.47363H417.207v14.64648a12.2134,12.2134,0,0,1-.42383,3.23877,7.05452,7.05452,0,0,1-1.43164,2.73389,7.19109,7.19109,0,0,1-2.63672,1.9043,10.0406,10.0406,0,0,1-4.03613.71582,11.894,11.894,0,0,1-4.05176-.73242,10.3134,10.3134,0,0,1-3.499-2.06689Zm.91113-10.5127a6.14463,6.14463,0,0,0,.34277,2.05029,5.05176,5.05176,0,0,0,2.62793,2.9292,4.90867,4.90867,0,0,0,2.15527.45605,5.3789,5.3789,0,0,0,2.15527-.42334,4.91321,4.91321,0,0,0,1.665-1.15527,5.1608,5.1608,0,0,0,1.06055-1.7251,5.98108,5.98108,0,0,0,.376-2.13184,5.75965,5.75965,0,0,0-.376-2.083,5.22455,5.22455,0,0,0-2.74219-2.91309,5.46423,5.46423,0,0,0-4.29395,0,5.03337,5.03337,0,0,0-1.61621,1.17139,4.889,4.889,0,0,0-1.01172,1.7251A6.38954,6.38954,0,0,0,403.99219,255.21289Z"/></g></svg>